<?xml version="1.0" encoding="utf-8"?>
<!-- Generator: Adobe Illustrator 28.0.0, SVG Export Plug-In . SVG Version: 6.00 Build 0)  -->
<svg version="1.1" id="Laag_1" xmlns="http://www.w3.org/2000/svg" xmlns:xlink="http://www.w3.org/1999/xlink" x="0px" y="0px"
	 viewBox="0 0 90 90" style="enable-background:new 0 0 90 90;" xml:space="preserve">
<style type="text/css">
	.st0{fill:#FAC844;}
</style>
<g>
	<g>
		<path class="st0" d="M88,89H2C1.4,89,1,88.6,1,88V2C1,1.4,1.4,1,2,1H88C88.6,1,89,1.4,89,2V88C89,88.6,88.6,89,88,89z M3.1,86.9
			h83.8V3.1H3.1V86.9z"/>
	</g>
	<g>
		<path class="st0" d="M45,64c-10.5,0-19-8.5-19-19c0-10.5,8.5-19,19-19c10.5,0,19,8.5,19,19C64,55.5,55.5,64,45,64z M45,28.2
			c-9.3,0-16.8,7.6-16.8,16.8S35.7,61.8,45,61.8S61.8,54.3,61.8,45S54.3,28.2,45,28.2z"/>
	</g>
</g>
</svg>
