<?xml version="1.0" encoding="utf-8"?>
<!-- Generator: Adobe Illustrator 28.0.0, SVG Export Plug-In . SVG Version: 6.00 Build 0)  -->
<svg version="1.1" id="Laag_1" xmlns="http://www.w3.org/2000/svg" xmlns:xlink="http://www.w3.org/1999/xlink" x="0px" y="0px"
	 viewBox="0 0 90 90" style="enable-background:new 0 0 90 90;" xml:space="preserve">
<style type="text/css">
	.st0{fill:#FAC844;}
</style>
<path class="st0" d="M87.9,43.9H58.5C76.2,38.2,89,21.6,89,2.1C89,1.5,88.5,1,87.9,1H45c-0.6,0-1.1,0.5-1.1,1.1v29.4
	C38.2,13.8,21.6,1,2.1,1C1.5,1,1,1.5,1,2.1V45c0,0.6,0.5,1.1,1.1,1.1h29.4C13.8,51.8,1,68.4,1,87.9C1,88.5,1.5,89,2.1,89H45
	c0.6,0,1.1-0.5,1.1-1.1V58.5C51.8,76.2,68.4,89,87.9,89c0.6,0,1.1-0.5,1.1-1.1V45C89,44.4,88.5,43.9,87.9,43.9z M46.1,3.1h40.8
	c-0.6,22.3-18.6,40.2-40.8,40.8V3.1z M3.1,3.1c22.3,0.6,40.2,18.6,40.8,40.8H3.1V3.1z M43.9,86.9H3.1c0.6-22.2,18.6-40.2,40.8-40.8
	V86.9z M86.9,86.9c-22.2-0.6-40.2-18.6-40.8-40.8h40.8V86.9z"/>
</svg>
