<?xml version="1.0" encoding="utf-8"?>
<!-- Generator: Adobe Illustrator 28.0.0, SVG Export Plug-In . SVG Version: 6.00 Build 0)  -->
<svg version="1.1" id="Laag_1" xmlns="http://www.w3.org/2000/svg" xmlns:xlink="http://www.w3.org/1999/xlink" x="0px" y="0px"
	 viewBox="0 0 46 46" style="enable-background:new 0 0 46 46;" xml:space="preserve">
<style type="text/css">
	.st0{fill:#FFFFFF;}
</style>
<g>
	<path class="st0" d="M34.4,21.3c0-1.6,0.1-3.2-0.1-4.8c-0.1-0.8-0.3-1.6-0.7-2.3c-0.8-1.4-2-2.1-3.6-2.4c-1.2-0.2-2.4-0.2-3.7-0.2
		c-1.2,0-2.3,0-3.5,0c-1.6,0-3.3,0-4.9,0c-0.7,0-1.3,0.1-1.9,0.2c-2.2,0.4-3.7,1.8-4.1,3.9c-0.2,1.1-0.2,2.2-0.2,3.3
		c0,3.1-0.1,6.2,0,9.3c0,0.7,0.1,1.4,0.2,2c0.5,2.2,2,3.5,4.1,3.8c1.3,0.2,2.6,0.2,3.9,0.2c1.6,0,3.1,0,4.7,0c1,0,2.1,0,3.1,0
		c0.9,0,1.9,0,2.8-0.3c1.4-0.3,2.4-1.1,3.1-2.3c0.5-0.9,0.7-1.8,0.7-2.8c0.1-1.3,0.1-2.6,0.1-3.8C34.4,23.8,34.4,22.6,34.4,21.3z
		 M23.1,30.2c-4,0-7.3-3.3-7.2-7.3c0-3.9,3.2-7.2,7.2-7.2c4.1,0,7.2,3.3,7.2,7.2C30.3,27,27.1,30.2,23.1,30.2z M30.5,17.3
		c-0.9,0-1.7-0.8-1.7-1.7c0-0.9,0.8-1.7,1.7-1.7c0.9,0,1.7,0.8,1.7,1.7C32.2,16.5,31.4,17.3,30.5,17.3z"/>
	<path class="st0" d="M23,0C10.3,0,0,10.3,0,23s10.3,23,23,23c12.7,0,23-10.3,23-23S35.7,0,23,0z M37,28.1c0,1.5-0.2,3-0.8,4.4
		c-0.8,1.8-2.1,3-3.9,3.7c-1.1,0.4-2.2,0.6-3.3,0.7c-3.6,0.1-7.1,0.1-10.7,0c-1.3,0-2.7-0.1-3.9-0.5C13,36,11.9,35.3,11,34.2
		c-1.1-1.3-1.6-2.9-1.8-4.6c-0.1-0.8-0.1-1.5-0.1-2.3C9,25.5,9,23.7,9,21.9c0-1.7,0-3.3,0.1-5c0.1-1.7,0.5-3.4,1.6-4.8
		c0.9-1.2,2-2,3.4-2.5c0.9-0.3,1.9-0.5,2.9-0.5C20.3,8.9,23.5,9,26.8,9c1.4,0,2.8,0,4.1,0.3c3.1,0.6,5.4,3,5.9,6.1
		c0.2,0.9,0.2,1.8,0.2,2.7c0,1.6,0,3.2,0,4.9C37,24.7,37,26.4,37,28.1z"/>
	<path class="st0" d="M23,18.4c-2.6,0-4.6,2-4.6,4.6c0,2.6,2,4.6,4.6,4.6c2.6,0,4.6-2.1,4.6-4.6C27.7,20.4,25.6,18.4,23,18.4z"/>
</g>
</svg>
