<?xml version="1.0" encoding="utf-8"?>
<!-- Generator: Adobe Illustrator 28.0.0, SVG Export Plug-In . SVG Version: 6.00 Build 0)  -->
<svg version="1.1" id="Laag_1" xmlns="http://www.w3.org/2000/svg" xmlns:xlink="http://www.w3.org/1999/xlink" x="0px" y="0px"
	 viewBox="0 0 46 46" style="enable-background:new 0 0 46 46;" xml:space="preserve">
<style type="text/css">
	.st0{fill:#FFFFFF;}
</style>
<g>
	<path class="st0" d="M37,23c0,1.7,0,3.4,0,5.2c0,1.5-0.2,3-0.8,4.4c-0.8,1.8-2.1,3-3.9,3.7c-1.1,0.4-2.2,0.6-3.3,0.7
		c-3.6,0.1-7.1,0.1-10.7,0c-1.3,0-2.7-0.1-3.9-0.5C13,36,11.9,35.3,11,34.2c-1.1-1.3-1.6-2.9-1.8-4.6c-0.1-0.8-0.1-1.5-0.1-2.3
		C9,25.5,9,23.7,9,21.9c0-1.7,0-3.3,0.1-5c0.1-1.7,0.5-3.4,1.6-4.8c0.9-1.2,2-2,3.4-2.5c0.9-0.3,1.9-0.5,2.9-0.5
		C20.3,8.9,23.5,9,26.8,9c1.4,0,2.8,0,4.1,0.3c3.1,0.6,5.4,3,5.9,6.1c0.2,0.9,0.2,1.8,0.2,2.7C37,19.7,37,21.4,37,23z M22.9,11.6
		c-1.6,0-3.3,0-4.9,0c-0.7,0-1.3,0.1-1.9,0.2c-2.2,0.4-3.7,1.8-4.1,3.9c-0.2,1.1-0.2,2.2-0.2,3.3c0,3.1-0.1,6.2,0,9.3
		c0,0.7,0.1,1.4,0.2,2c0.5,2.2,2,3.5,4.1,3.8c1.3,0.2,2.6,0.2,3.9,0.2c1.6,0,3.1,0,4.7,0c1,0,2.1,0,3.1,0c0.9,0,1.9,0,2.8-0.3
		c1.4-0.3,2.4-1.1,3.1-2.3c0.5-0.9,0.7-1.8,0.7-2.8c0.1-1.3,0.1-2.6,0.1-3.8c0-1.3,0-2.5,0-3.8c0-1.6,0.1-3.2-0.1-4.8
		c-0.1-0.8-0.3-1.6-0.7-2.3c-0.8-1.4-2-2.1-3.6-2.4c-1.2-0.2-2.4-0.2-3.7-0.2C25.2,11.6,24,11.6,22.9,11.6z"/>
	<path class="st0" d="M23.1,30.2c-4,0-7.3-3.3-7.2-7.3c0-3.9,3.2-7.2,7.2-7.2c4.1,0,7.2,3.3,7.2,7.2C30.3,27,27.1,30.2,23.1,30.2z
		 M23,27.6c2.6,0,4.6-2.1,4.6-4.6c0-2.5-2.1-4.6-4.6-4.6c-2.6,0-4.6,2-4.6,4.6C18.4,25.6,20.5,27.6,23,27.6z"/>
	<path class="st0" d="M32.2,15.6c0,1-0.8,1.7-1.7,1.7c-0.9,0-1.7-0.8-1.7-1.7c0-0.9,0.8-1.7,1.7-1.7C31.5,13.8,32.2,14.6,32.2,15.6z
		"/>
</g>
</svg>
