<?xml version="1.0" encoding="utf-8"?>
<!-- Generator: Adobe Illustrator 28.0.0, SVG Export Plug-In . SVG Version: 6.00 Build 0)  -->
<svg version="1.1" id="Laag_1" xmlns="http://www.w3.org/2000/svg" xmlns:xlink="http://www.w3.org/1999/xlink" x="0px" y="0px"
	 viewBox="0 0 80 80" style="enable-background:new 0 0 80 80;" xml:space="preserve">
<style type="text/css">
	.st0{fill:#FFFFFF;}
</style>
<g>
	<path class="st0" d="M45.2,0.3C45.2,0.3,45.2,0.3,45.2,0.3l-0.2,0c-1.2-0.2-2.5-0.3-3.8-0.3l-0.2,0c0,0,0,0,0,0c-0.3,0-0.6,0-0.9,0
		c-5.6,0-10.9,1.2-15.7,3.2c0.4,1.4,0.9,2.8,1.6,4.1c4.3-1.9,9-2.9,14-2.9C39.3,6.8,39,9.4,39,12c0,3.4,0.5,6.8,1.3,10c0,0,0,0,0,0
		l0.1,0.3c0.4,1.3,0.8,2.6,1.3,3.8l0.1,0.3c0,0,0,0,0,0c0.2,0.4,0.3,0.8,0.5,1.2c-9.2-2.7-16.8-9.3-20.9-17.8c0,0,0,0,0,0
		c-0.6-1.3-1.2-2.7-1.6-4.1c0,0,0,0,0,0c0,0,0,0,0,0l-0.1,0.1c-1.2,0.7-2.3,1.5-3.4,2.3C6.4,15.2,0,26.8,0,40
		c0,10,3.7,19.1,9.7,26.1c-0.1-0.6-0.1-1.3-0.1-1.9l0-0.1v0c0-0.6,0-1,0-1.5c0-1.3,0.1-2.5,0.2-3.8C6.3,53.3,4.4,46.9,4.4,40
		c0-11.4,5.3-21.5,13.6-28c5.2,10.4,15.1,18.1,27,20.3c0,0,0,0,0,0c0,0,0.1,0,0.1,0c1.7,0.3,3.5,0.5,5.3,0.6c0,0,0,0,0,0l0,0
		c0.5,0,1,0,1.4,0c6,0,11.7-1.4,16.7-3.9l-1.9-3.7c-4.5,2.2-9.5,3.4-14.8,3.4c-1.5,0-3-0.1-4.4-0.3c-0.6-1-1.1-2-1.5-3
		c3.7-1.3,6.8-4,8.5-7.4l-3.4-3c-1.1,3-3.5,5.4-6.6,6.4c-0.9-3-1.3-6.2-1.3-9.5c0-2.5,0.3-5,0.8-7.4c17.8,2,31.7,17.1,31.7,35.4
		c0,8.2-2.8,15.8-7.5,21.8c1.2,0.9,2.3,1.8,3.4,2.8C76.8,57.8,80,49.3,80,40C80,19.7,64.8,2.9,45.2,0.3z"/>
	<path class="st0" d="M49,42c0,0,3.1,1.9,2.2,4.6c-0.9,2.4-2,2.9-4.7,2.6c-2.3-0.2-7.4-0.6-10.2,1c-2.8,1.6-4.1,3.5-3.7,6.3
		c0.6,4.1,4.6,3.8,8.2,3.3c2.2-0.5,4.4-0.7,6.7-0.7c0.5,0,1,0,1.4,0c0.2,0,0.3,0,0.4,0c0.3,0,0.7,0,1,0.1c0.2,0,0.3,0,0.5,0
		c0.3,0,0.6,0.1,0.9,0.1c0.2,0,0.3,0,0.5,0.1c0.4,0.1,0.7,0.1,1.1,0.2c0.1,0,0.2,0,0.3,0c0.4,0.1,0.9,0.2,1.3,0.3
		c0.1,0,0.3,0.1,0.4,0.1c0.3,0.1,0.6,0.2,0.9,0.2c0.2,0,0.3,0.1,0.5,0.2c0.3,0.1,0.5,0.2,0.8,0.3c0.2,0.1,0.3,0.1,0.5,0.2
		c0.3,0.1,0.6,0.2,0.9,0.3c0.1,0.1,0.3,0.1,0.4,0.2c0.4,0.2,0.8,0.3,1.2,0.5c0.1,0.1,0.2,0.1,0.4,0.2c0.3,0.1,0.6,0.3,0.8,0.4
		c0.2,0.1,0.3,0.2,0.5,0.3c0.2,0.1,0.5,0.3,0.7,0.4c0.2,0.1,0.3,0.2,0.5,0.3c0.2,0.1,0.5,0.3,0.7,0.4c0.1,0.1,0.3,0.2,0.4,0.3
		c0.4,0.2,0.7,0.5,1.1,0.7l0,0c1.2,0.9,2.3,1.8,3.4,2.8l0,0C61.5,75.3,51.3,80,40,80c-9.6,0-18.3-3.4-25.2-9l0,0
		c-0.6-2.3-1-4.6-1.1-7.1l0,0v0c0-0.5,0-0.9,0-1.4c0-11.4,6.1-21.3,15.2-26.8c0,0-5.7-2.4-5-9.5L49,42z"/>
</g>
</svg>
