<?xml version="1.0" encoding="utf-8"?>
<!-- Generator: Adobe Illustrator 28.0.0, SVG Export Plug-In . SVG Version: 6.00 Build 0)  -->
<svg version="1.1" id="Laag_1" xmlns="http://www.w3.org/2000/svg" xmlns:xlink="http://www.w3.org/1999/xlink" x="0px" y="0px"
	 viewBox="0 0 245 63" style="enable-background:new 0 0 245 63;" xml:space="preserve">
<style type="text/css">
	.st0{fill:#FFFFFF;}
	.st1{fill:#388379;}
</style>
<g>
	<path class="st0" d="M35.7,0.2C35.7,0.2,35.7,0.1,35.7,0.2l-0.2,0c-1-0.1-2-0.2-3-0.2l-0.2,0c0,0,0,0,0,0c-0.2,0-0.5,0-0.7,0
		c-4.4,0-8.6,0.9-12.4,2.5c0.3,1.1,0.7,2.2,1.2,3.2c3.4-1.5,7.1-2.3,11-2.3c-0.4,2-0.6,4-0.6,6c0,2.7,0.4,5.4,1.1,7.9c0,0,0,0,0,0
		l0.1,0.2c0.3,1,0.6,2,1,3l0.1,0.2c0,0,0,0,0,0c0.1,0.3,0.2,0.6,0.4,0.9c-7.3-2.1-13.3-7.3-16.5-14.1c0,0,0,0,0,0
		c-0.5-1-0.9-2.1-1.3-3.2c0,0,0,0,0,0c0,0,0,0,0,0l-0.1,0.1c-0.9,0.6-1.8,1.2-2.7,1.8C5,11.9,0,21.1,0,31.5c0,7.9,2.9,15.1,7.7,20.6
		c0-0.5-0.1-1-0.1-1.5l0-0.1v0c0-0.4,0-0.8,0-1.2c0-1,0.1-2,0.2-3C5,42,3.4,36.9,3.4,31.5c0-9,4.2-17,10.7-22.1
		c4.1,8.2,12,14.3,21.3,16c0,0,0,0,0,0c0,0,0,0,0.1,0c1.4,0.2,2.8,0.4,4.2,0.5c0,0,0,0,0,0l0,0c0.4,0,0.8,0,1.1,0
		c4.8,0,9.2-1.1,13.2-3.1L52.7,20c-3.5,1.7-7.5,2.7-11.7,2.7c-1.2,0-2.3-0.1-3.5-0.2c-0.4-0.8-0.8-1.6-1.2-2.4
		c2.9-1,5.4-3.1,6.7-5.9l-2.7-2.4c-0.9,2.4-2.8,4.3-5.2,5.1c-0.7-2.4-1.1-4.9-1.1-7.5c0-2,0.2-4,0.6-5.9c14.1,1.6,25.1,13.5,25.1,28
		c0,6.5-2.2,12.5-5.9,17.2c0.9,0.7,1.8,1.4,2.7,2.2c4.2-5.4,6.7-12.1,6.7-19.4C63.2,15.4,51.3,2.2,35.7,0.2z"/>
	<path class="st1" d="M38.7,33.1c0,0,2.5,1.5,1.7,3.6c-0.7,1.9-1.6,2.3-3.7,2.1c-1.8-0.2-5.9-0.5-8.1,0.8c-2.2,1.3-3.3,2.8-3,5
		c0.5,3.3,3.6,3,6.4,2.6c1.7-0.4,3.5-0.6,5.3-0.6c0.4,0,0.8,0,1.1,0c0.1,0,0.2,0,0.4,0c0.3,0,0.5,0,0.8,0.1c0.1,0,0.3,0,0.4,0
		c0.2,0,0.5,0.1,0.7,0.1c0.1,0,0.2,0,0.4,0.1c0.3,0,0.6,0.1,0.9,0.1c0.1,0,0.1,0,0.2,0c0.4,0.1,0.7,0.1,1.1,0.2
		c0.1,0,0.2,0.1,0.3,0.1c0.2,0.1,0.5,0.1,0.7,0.2c0.1,0,0.3,0.1,0.4,0.1c0.2,0.1,0.4,0.1,0.6,0.2c0.1,0,0.3,0.1,0.4,0.1
		c0.2,0.1,0.5,0.2,0.7,0.3c0.1,0,0.2,0.1,0.3,0.1c0.3,0.1,0.6,0.3,0.9,0.4c0.1,0,0.2,0.1,0.3,0.1c0.2,0.1,0.4,0.2,0.7,0.3
		c0.1,0.1,0.2,0.1,0.4,0.2c0.2,0.1,0.4,0.2,0.6,0.3c0.1,0.1,0.2,0.1,0.4,0.2c0.2,0.1,0.4,0.2,0.6,0.4c0.1,0.1,0.2,0.1,0.3,0.2
		c0.3,0.2,0.6,0.4,0.8,0.6l0,0c0.9,0.7,1.8,1.4,2.7,2.2l0,0c-5.8,6-13.8,9.7-22.8,9.7c-7.6,0-14.5-2.7-19.9-7.1l0,0
		c-0.5-1.8-0.8-3.7-0.9-5.6l0,0v0c0-0.4,0-0.7,0-1.1c0-9,4.8-16.9,12-21.1c0,0-4.5-1.9-4-7.5L38.7,33.1z"/>
	<g>
		<g>
			<path class="st1" d="M84.2,17.5v3.2h-4.3v13.1h-4V20.7h-4.3v-3.2H84.2z"/>
			<path class="st1" d="M97.8,22.2c0.9,1,1.3,2.3,1.3,4.1v7.6h-4v-7c0-0.9-0.2-1.5-0.7-2c-0.5-0.5-1.1-0.7-1.8-0.7
				c-0.8,0-1.4,0.2-1.8,0.7c-0.4,0.5-0.7,1.2-0.7,2v7h-4V16.7h4v6c0.4-0.6,1-1,1.7-1.4s1.5-0.5,2.3-0.5
				C95.7,20.7,96.9,21.2,97.8,22.2z"/>
			<path class="st1" d="M114.1,28.3h-9c0.1,0.8,0.3,1.4,0.8,1.8c0.5,0.4,1,0.6,1.7,0.6c1,0,1.7-0.4,2.1-1.3h4.2
				c-0.2,0.9-0.6,1.6-1.2,2.3c-0.6,0.7-1.3,1.2-2.1,1.6c-0.9,0.4-1.8,0.6-2.9,0.6c-1.3,0-2.4-0.3-3.4-0.8c-1-0.5-1.8-1.3-2.3-2.3
				c-0.6-1-0.8-2.2-0.8-3.5c0-1.3,0.3-2.5,0.8-3.5c0.6-1,1.3-1.8,2.3-2.3c1-0.5,2.1-0.8,3.4-0.8c1.3,0,2.4,0.3,3.3,0.8
				c1,0.5,1.7,1.3,2.3,2.3c0.6,1,0.8,2.1,0.8,3.4C114.2,27.5,114.1,27.9,114.1,28.3z M110.1,26.1c0-0.7-0.2-1.2-0.7-1.6
				c-0.5-0.4-1-0.6-1.7-0.6c-0.7,0-1.2,0.2-1.7,0.6c-0.5,0.4-0.7,0.9-0.8,1.7H110.1z"/>
			<path class="st1" d="M133.3,26.9c0.6,0.7,0.9,1.6,0.9,2.5c0,1.4-0.5,2.4-1.4,3.2c-1,0.8-2.3,1.2-4,1.2h-7.6V17.5h7.4
				c1.7,0,3,0.4,3.9,1.1c0.9,0.8,1.4,1.8,1.4,3.1c0,1-0.3,1.8-0.8,2.4c-0.5,0.6-1.2,1.1-2,1.3C132,25.7,132.8,26.2,133.3,26.9z
				 M125.2,24.1h2.6c0.7,0,1.2-0.1,1.5-0.4c0.3-0.3,0.5-0.7,0.5-1.3c0-0.6-0.2-1-0.5-1.3c-0.3-0.3-0.8-0.4-1.5-0.4h-2.6V24.1z
				 M129.6,30.2c0.4-0.3,0.5-0.7,0.5-1.3c0-0.6-0.2-1-0.6-1.3c-0.4-0.3-0.9-0.5-1.6-0.5h-2.9v3.6h2.9
				C128.8,30.7,129.3,30.5,129.6,30.2z"/>
			<path class="st1" d="M140.5,16.7v17.2h-4V16.7H140.5z"/>
			<path class="st1" d="M143.3,23.8c0.5-1,1.2-1.8,2.1-2.3c0.9-0.5,1.8-0.8,2.9-0.8c0.9,0,1.7,0.2,2.4,0.6c0.7,0.4,1.2,0.9,1.6,1.5
				v-1.8h4v13h-4V32c-0.4,0.6-0.9,1.1-1.6,1.5c-0.7,0.4-1.5,0.6-2.4,0.6c-1.1,0-2-0.3-2.9-0.8c-0.9-0.6-1.6-1.3-2.1-2.3
				c-0.5-1-0.8-2.2-0.8-3.5C142.6,26,142.8,24.8,143.3,23.8z M151.5,25c-0.6-0.6-1.2-0.9-2-0.9c-0.8,0-1.5,0.3-2,0.8
				c-0.6,0.6-0.8,1.3-0.8,2.3c0,1,0.3,1.8,0.8,2.4c0.6,0.6,1.2,0.9,2,0.9c0.8,0,1.5-0.3,2-0.9c0.5-0.6,0.8-1.4,0.8-2.3
				C152.3,26.4,152,25.6,151.5,25z"/>
			<path class="st1" d="M159.2,23.8c0.5-1,1.3-1.8,2.3-2.3c1-0.5,2.1-0.8,3.4-0.8c1.6,0,3,0.4,4.1,1.3c1.1,0.9,1.8,2.1,2.2,3.6h-4.2
				c-0.4-1-1-1.5-2.1-1.5c-0.7,0-1.3,0.3-1.7,0.8c-0.4,0.6-0.7,1.4-0.7,2.4c0,1.1,0.2,1.9,0.7,2.4c0.4,0.6,1,0.8,1.7,0.8
				c1,0,1.7-0.5,2.1-1.5h4.2c-0.3,1.5-1.1,2.7-2.2,3.6c-1.1,0.9-2.5,1.3-4.1,1.3c-1.3,0-2.4-0.3-3.4-0.8c-1-0.5-1.8-1.3-2.3-2.3
				c-0.6-1-0.8-2.2-0.8-3.5C158.4,26,158.6,24.8,159.2,23.8z"/>
			<path class="st1" d="M181.2,33.9l-4-5.4v5.4h-4V16.7h4v9.5l3.9-5.3h4.9l-5.4,6.5l5.4,6.5H181.2z"/>
			<path class="st1" d="M195.2,33.4c-0.9-0.4-1.7-1-2.3-1.7c-0.6-0.8-0.9-1.7-0.9-2.7h4.2c0.1,0.6,0.3,1.1,0.6,1.4
				c0.4,0.3,0.8,0.5,1.4,0.5c0.6,0,1.1-0.1,1.4-0.4c0.3-0.3,0.5-0.6,0.5-1.1c0-0.4-0.1-0.7-0.4-1c-0.3-0.3-0.6-0.5-1-0.7
				c-0.4-0.2-1-0.4-1.7-0.6c-1.1-0.3-1.9-0.7-2.6-1c-0.7-0.3-1.2-0.8-1.7-1.4c-0.5-0.6-0.7-1.5-0.7-2.5c0-1.5,0.5-2.7,1.7-3.6
				c1.1-0.9,2.5-1.3,4.3-1.3c1.8,0,3.2,0.4,4.4,1.3c1.1,0.9,1.7,2.1,1.8,3.6h-4.3c0-0.5-0.2-0.9-0.6-1.2c-0.4-0.3-0.8-0.5-1.4-0.5
				c-0.5,0-0.9,0.1-1.2,0.4c-0.3,0.3-0.4,0.6-0.4,1.1c0,0.5,0.2,0.9,0.7,1.2c0.5,0.3,1.3,0.6,2.3,1c1.1,0.4,1.9,0.7,2.6,1
				c0.7,0.3,1.2,0.8,1.7,1.4c0.5,0.6,0.7,1.4,0.7,2.4c0,0.9-0.2,1.8-0.7,2.5c-0.5,0.8-1.2,1.4-2.1,1.8c-0.9,0.5-2,0.7-3.2,0.7
				C197.3,34,196.2,33.8,195.2,33.4z"/>
			<path class="st1" d="M214.1,30.5v3.4h-2c-1.4,0-2.6-0.4-3.4-1.1c-0.8-0.7-1.2-1.9-1.2-3.5v-5.2h-1.6v-3.3h1.6v-3.2h4v3.2h2.6v3.3
				h-2.6v5.2c0,0.4,0.1,0.7,0.3,0.8c0.2,0.2,0.5,0.3,0.9,0.3H214.1z"/>
			<path class="st1" d="M216.3,23.8c0.5-1,1.2-1.8,2.1-2.3c0.9-0.5,1.8-0.8,2.9-0.8c0.9,0,1.7,0.2,2.4,0.6c0.7,0.4,1.2,0.9,1.6,1.5
				v-1.8h4v13h-4V32c-0.4,0.6-0.9,1.1-1.6,1.5c-0.7,0.4-1.5,0.6-2.4,0.6c-1.1,0-2-0.3-2.9-0.8c-0.9-0.6-1.6-1.3-2.1-2.3
				c-0.5-1-0.8-2.2-0.8-3.5C215.5,26,215.8,24.8,216.3,23.8z M224.4,25c-0.6-0.6-1.2-0.9-2-0.9c-0.8,0-1.5,0.3-2,0.8
				c-0.6,0.6-0.8,1.3-0.8,2.3c0,1,0.3,1.8,0.8,2.4c0.6,0.6,1.2,0.9,2,0.9c0.8,0,1.5-0.3,2-0.9c0.5-0.6,0.8-1.4,0.8-2.3
				C225.2,26.4,225,25.6,224.4,25z"/>
			<path class="st1" d="M239.4,21.3c0.7,0.4,1.2,0.9,1.6,1.5v-1.8h4v13c0,1.2-0.2,2.3-0.7,3.2c-0.5,1-1.2,1.7-2.2,2.3
				c-1,0.6-2.2,0.9-3.6,0.9c-1.9,0-3.5-0.5-4.7-1.4c-1.2-0.9-1.9-2.1-2-3.7h3.9c0.1,0.5,0.4,0.9,0.9,1.2c0.5,0.3,1,0.4,1.7,0.4
				c0.8,0,1.5-0.2,2-0.7c0.5-0.5,0.7-1.2,0.7-2.3V32c-0.4,0.6-0.9,1.1-1.6,1.5c-0.7,0.4-1.5,0.6-2.4,0.6c-1.1,0-2-0.3-2.9-0.8
				c-0.9-0.6-1.6-1.3-2.1-2.3c-0.5-1-0.8-2.2-0.8-3.5c0-1.3,0.3-2.5,0.8-3.5c0.5-1,1.2-1.8,2.1-2.3c0.9-0.5,1.8-0.8,2.9-0.8
				C237.9,20.7,238.7,20.9,239.4,21.3z M240.2,25c-0.6-0.6-1.2-0.9-2-0.9c-0.8,0-1.5,0.3-2,0.8c-0.6,0.6-0.8,1.3-0.8,2.3
				c0,1,0.3,1.8,0.8,2.4c0.6,0.6,1.2,0.9,2,0.9c0.8,0,1.5-0.3,2-0.9c0.5-0.6,0.8-1.4,0.8-2.3C241,26.4,240.7,25.6,240.2,25z"/>
		</g>
	</g>
	<g>
		<path class="st0" d="M76.7,41.4l1,5.4l2.9-5.4h1.1l-3.6,6.4h-1.2l-1.4-6.4H76.7z"/>
		<path class="st0" d="M84.5,47.9c-1.6,0-2.7-1.1-2.7-2.7c0-2.2,1.6-3.9,3.8-3.9c1.6,0,2.7,1,2.7,2.7C88.4,46.2,86.7,47.9,84.5,47.9
			z M84.7,47c1.5,0,2.7-1.4,2.7-3c0-1.2-0.8-1.8-1.8-1.8c-1.6,0-2.6,1.4-2.6,3C82.9,46.4,83.7,47,84.7,47z"/>
		<path class="st0" d="M90.2,47.8h-1.1l1.1-6.4h1.1l-0.2,1.2c0.5-0.8,1.3-1.3,2.3-1.3l-0.2,1.1H93c-1,0-1.8,0.5-2.1,1.9L90.2,47.8z"
			/>
		<path class="st0" d="M103.3,44.2c0.2-1.3-0.3-2-1.4-2c-1,0-1.8,0.6-2.1,1.9l-0.7,3.7h-1l0.6-3.6c0.2-1.3-0.3-2-1.4-2
			c-1.1,0-1.9,0.7-2.2,2.1v0l-0.6,3.5h-1.1l1.1-6.4h1.1l-0.2,0.9c0.5-0.7,1.4-1,2.2-1c1,0,1.8,0.5,2.1,1.4c0.5-0.9,1.5-1.4,2.5-1.4
			c1.4,0,2.4,0.9,2.1,2.7l-0.7,3.8h-1L103.3,44.2z"/>
		<path class="st0" d="M109.3,41.3c1.2,0,1.9,0.6,2.1,1.3l0.2-1.2h1.1l-1.2,6.5c-0.3,1.8-1.7,3-3.6,3c-1.7,0-2.7-0.8-2.7-2.2h1.1
			c0.1,0.8,0.8,1.3,1.8,1.3c1.1,0,2.1-0.7,2.3-2.1l0.2-1.3c-0.5,0.7-1.4,1.3-2.6,1.3c-1.7,0-2.8-1.3-2.5-3.3
			C106,42.6,107.5,41.3,109.3,41.3z M109.3,42.2c-1.2,0-2.3,0.8-2.6,2.3c-0.3,1.5,0.6,2.4,1.7,2.4c1.2,0,2.3-0.9,2.6-2.4
			C111.3,43.1,110.5,42.2,109.3,42.2z"/>
		<path class="st0" d="M116.1,47.9c-1.8,0-2.9-1.3-2.6-3.3c0.4-2,1.9-3.3,3.7-3.3s2.8,1.3,2.5,3c0,0.2-0.1,0.4-0.2,0.6h-5.1
			c-0.2,1.3,0.6,2,1.7,2c1,0,1.6-0.5,2-1.2h1.1C118.8,47,117.7,47.9,116.1,47.9z M114.7,44.2h4c0.2-1.3-0.6-2-1.7-2
			C116,42.2,115,42.9,114.7,44.2z"/>
		<path class="st0" d="M122.1,41.4l1,5.4l2.9-5.4h1.1l-3.6,6.4h-1.2l-1.4-6.4H122.1z"/>
		<path class="st0" d="M128.2,41.4h1.1l-1.1,6.4h-1.1L128.2,41.4z M128.3,39.6c0.1-0.4,0.4-0.7,0.8-0.7c0.4,0,0.7,0.3,0.6,0.7
			c-0.1,0.4-0.4,0.7-0.8,0.7C128.5,40.4,128.3,40.1,128.3,39.6z"/>
		<path class="st0" d="M135.2,44.2c0.2-1.3-0.4-2-1.4-2c-1.1,0-1.9,0.7-2.2,2v0l-0.6,3.5h-1.1l1.1-6.4h1.1l-0.2,0.9
			c0.5-0.7,1.4-1,2.2-1c1.5,0,2.4,0.9,2.1,2.7l-0.7,3.8h-1L135.2,44.2z"/>
		<path class="st0" d="M141.2,41.3c1.2,0,1.9,0.6,2.1,1.3l0.2-1.2h1.1l-1.2,6.5c-0.3,1.8-1.7,3-3.6,3c-1.7,0-2.7-0.8-2.7-2.2h1.1
			c0.1,0.8,0.8,1.3,1.8,1.3c1.1,0,2.1-0.7,2.3-2.1l0.2-1.3c-0.5,0.7-1.4,1.3-2.6,1.3c-1.7,0-2.8-1.3-2.5-3.3
			C137.9,42.6,139.4,41.3,141.2,41.3z M141.2,42.2c-1.2,0-2.3,0.8-2.6,2.3c-0.3,1.5,0.6,2.4,1.7,2.4s2.3-0.9,2.6-2.4
			C143.2,43.1,142.4,42.2,141.2,42.2z"/>
		<path class="st0" d="M153.7,41.3c0-0.1,0-0.1,0-0.2c0-0.5-0.3-0.8-0.9-0.8c-0.7,0-1.2,0.5-1.2,1.2c0,0.4,0.2,0.7,0.6,1.3l2,2.4
			c0.1-0.1,0.2-0.2,0.3-0.3l1-1.3h1.1l-1.2,1.7c-0.2,0.3-0.4,0.5-0.6,0.7l1.5,1.8H155l-0.9-1.1c-0.9,0.8-1.9,1.2-3,1.2
			c-1.5,0-2.5-0.8-2.5-2.1c0-1.3,1-2.4,2.4-2.9c-0.3-0.4-0.5-0.8-0.5-1.2c0-1.3,1-2.2,2.5-2.2c1.1,0,1.8,0.6,1.8,1.5
			c0,0.1,0,0.2,0,0.3H153.7z M153.5,46l-2-2.4c-1.1,0.4-1.8,1.1-1.8,2.1c0,0.8,0.6,1.3,1.5,1.3C152.1,47,152.8,46.7,153.5,46z"/>
		<path class="st0" d="M170.7,44.2c0.2-1.3-0.3-2-1.4-2c-1,0-1.8,0.6-2.1,1.9l-0.7,3.7h-1l0.6-3.6c0.2-1.3-0.3-2-1.4-2
			c-1.1,0-1.9,0.7-2.2,2.1v0l-0.6,3.5h-1.1l1.1-6.4h1.1l-0.2,0.9c0.5-0.7,1.4-1,2.2-1c1,0,1.8,0.5,2.1,1.4c0.5-0.9,1.5-1.4,2.5-1.4
			c1.4,0,2.4,0.9,2.1,2.7l-0.7,3.8h-1L170.7,44.2z"/>
		<path class="st0" d="M175.6,47.9c-1.8,0-2.9-1.3-2.6-3.3c0.4-2,1.9-3.3,3.7-3.3c1.8,0,2.8,1.3,2.5,3c0,0.2-0.1,0.4-0.2,0.6h-5.1
			c-0.2,1.3,0.6,2,1.7,2c1,0,1.6-0.5,2-1.2h1.1C178.4,47,177.2,47.9,175.6,47.9z M174.2,44.2h4c0.2-1.3-0.6-2-1.7-2
			C175.5,42.2,174.5,42.9,174.2,44.2z"/>
		<path class="st0" d="M182.8,47.9c-1.8,0-2.9-1.3-2.6-3.3c0.4-2,1.9-3.3,3.7-3.3s2.8,1.3,2.5,3c0,0.2-0.1,0.4-0.2,0.6h-5.1
			c-0.2,1.3,0.6,2,1.7,2c1,0,1.6-0.5,2-1.2h1.1C185.6,47,184.4,47.9,182.8,47.9z M181.4,44.2h4c0.2-1.3-0.6-2-1.7-2
			C182.7,42.2,181.7,42.9,181.4,44.2z"/>
		<path class="st0" d="M188.4,47.8h-1.1l1.1-6.4h1.1l-0.2,1.2c0.5-0.8,1.3-1.3,2.3-1.3l-0.2,1.1h-0.3c-1,0-1.8,0.5-2.1,1.9
			L188.4,47.8z"/>
	</g>
</g>
</svg>
