<?xml version="1.0" encoding="utf-8"?>
<!-- Generator: Adobe Illustrator 28.2.0, SVG Export Plug-In . SVG Version: 6.00 Build 0)  -->
<svg version="1.1" xmlns="http://www.w3.org/2000/svg" xmlns:xlink="http://www.w3.org/1999/xlink" x="0px" y="0px"
	 viewBox="0 0 205 140" style="enable-background:new 0 0 205 140;" xml:space="preserve">
<style type="text/css">
	.st0{display:none;}
	.st1{display:inline;}
	.st2{fill:#FFFFFF;}
	.st3{fill:#D9D9D9;}
</style>
<g id="BG" class="st0">
	<rect class="st1" width="205" height="140"/>
</g>
<g id="Laag_1">
	<g>
		<path class="st2" d="M82.9,67.9h12.9l0.8,5.3H76.1V43.5h6.8V67.9z"/>
		<path class="st2" d="M106.1,52v21.2h-6.8V52H106.1z"/>
		<path class="st2" d="M122.5,56.9c-1.2,0-2.9,0.6-5,1.8v14.4h-6.8V52h4.2l1.2,2.2c1.3-0.9,2.7-1.6,4.2-2.1c1.5-0.5,2.9-0.8,4.3-0.8
			c2.6,0,4.5,0.7,5.7,2.2c1.2,1.5,1.8,3.5,1.8,6.1v13.5h-6.8v-13c0-1-0.2-1.8-0.7-2.4C124,57.2,123.3,56.9,122.5,56.9z"/>
		<path class="st2" d="M156.5,73.2H153l-1.3-1.7c-0.9,0.7-1.8,1.2-2.8,1.6c-1,0.4-2.1,0.6-3.1,0.6c-3.3,0-5.9-1-7.9-2.9
			c-1.9-1.9-2.9-4.6-2.9-8.2c0-3.5,1-6.3,3-8.3c2-2,4.7-3,8.1-3c1.2,0,2.4,0.3,3.6,0.9v-9.4l6.8-0.5V73.2z M146.5,68.2
			c1,0,2-0.4,3.1-1.2v-9c-1-0.7-2.2-1.1-3.3-1.1c-1.3,0-2.3,0.5-3.1,1.6c-0.8,1-1.2,2.4-1.2,4.1c0,1.7,0.4,3.1,1.2,4.1
			C144,67.7,145.1,68.2,146.5,68.2z"/>
		<path class="st2" d="M168.4,52v21.2h-6.8V52H168.4z"/>
		<g>
			<path class="st2" d="M55.4,48.7c1.2,0.5,1.8-0.1,1.8-0.1s0,0,0,0l2.8-2.8c0.8-0.8,0.2-1.4-0.1-1.7c-2.6-1.8-5.7-2.8-9-2.8
				c-3.3,0-6.5,1-9,2.8c-0.3,0.2-0.9,0.9-0.1,1.7h0l2.8,2.8c0,0,0.6,0.7,1.8,0.1l0,0c1.4-0.7,2.9-1.2,4.6-1.2
				C52.5,47.5,54,47.9,55.4,48.7L55.4,48.7z"/>
			<path class="st2" d="M59.4,61.8c-0.5,1.2,0.1,1.8,0.1,1.8s0,0,0,0l2.8,2.8c0.8,0.8,1.4,0.2,1.7-0.1c1.8-2.6,2.8-5.7,2.8-9
				c0-3.3-1-6.5-2.8-9c-0.2-0.3-0.9-0.9-1.7-0.1v0l-2.8,2.8c0,0-0.7,0.6-0.1,1.8l0,0c0.7,1.4,1.2,2.9,1.2,4.6
				C60.5,58.9,60.1,60.4,59.4,61.8L59.4,61.8z"/>
			<path class="st2" d="M44.4,53.9c-1.1,0-2,0.5-2.7,1.4l-0.5,0.7c0.1-1.2,0.5-2.4,1.1-3.4l0,0c0.5-1.2-0.1-1.8-0.1-1.8s0,0,0,0
				l-2.8-2.8c-0.8-0.8-1.4-0.2-1.7,0.1c-1.8,2.6-2.8,5.7-2.8,9c0,3.3,1,6.5,2.8,9c0.2,0.3,0.9,0.9,1.7,0.1v0l2.8-2.8
				c0,0,0.7-0.6,0.1-1.8l0,0c-0.6-1-0.9-2.2-1.1-3.4l0.5,0.7c0.6,0.9,1.6,1.4,2.7,1.4c1.8,0,3.3-1.5,3.3-3.3
				C47.7,55.4,46.2,53.9,44.4,53.9z"/>
			<path class="st2" d="M60,68.7L60,68.7l-2.8-2.8c0,0-0.6-0.7-1.8-0.1l0,0c-1,0.6-2.2,0.9-3.4,1.1l0.7-0.5c0.9-0.6,1.4-1.6,1.4-2.7
				c0-1.8-1.5-3.3-3.3-3.3c-1.8,0-3.3,1.5-3.3,3.3c0,1.1,0.5,2,1.4,2.7l0.7,0.5c-1.2-0.2-2.3-0.5-3.4-1.1l0,0
				c-1.2-0.5-1.8,0.1-1.8,0.1s0,0,0,0l-2.8,2.8c-0.8,0.8-0.2,1.4,0.1,1.7c2.6,1.8,5.7,2.8,9,2.8c3.3,0,6.5-1,9-2.8
				C60.2,70.2,60.8,69.5,60,68.7z"/>
		</g>
		<path class="st2" d="M106.5,45.4c0,1-0.4,1.9-1.1,2.6c-0.7,0.7-1.6,1.1-2.7,1.1c-1,0-1.9-0.4-2.6-1.1c-0.7-0.7-1.1-1.6-1.1-2.6
			c0-1,0.4-1.9,1.1-2.7c0.7-0.7,1.6-1.1,2.6-1.1c1,0,1.9,0.4,2.7,1.1C106.1,43.4,106.5,44.3,106.5,45.4z"/>
		<path class="st2" d="M168.7,45.4c0,1-0.4,1.9-1.1,2.6c-0.7,0.7-1.6,1.1-2.7,1.1c-1,0-1.9-0.4-2.6-1.1c-0.7-0.7-1.1-1.6-1.1-2.6
			c0-1,0.4-1.9,1.1-2.7c0.7-0.7,1.6-1.1,2.6-1.1c1,0,1.9,0.4,2.7,1.1C168.3,43.4,168.7,44.3,168.7,45.4z"/>
		<g>
			<path class="st2" d="M65.4,78.6c1.8,0,3.1,1.4,3.1,3.4s-1.3,3.4-3.1,3.4c-1.8,0-3.1-1.4-3.1-3.4S63.6,78.6,65.4,78.6z M65.4,84.6
				c1.2,0,2.1-1.1,2.1-2.6c0-1.5-0.9-2.6-2.1-2.6c-1.2,0-2.1,1.1-2.1,2.6C63.3,83.5,64.1,84.6,65.4,84.6z"/>
			<path class="st2" d="M69.6,80.5h0.9V81c0.4-0.4,0.9-0.6,1.5-0.6c1,0,1.7,0.7,1.7,1.7v3.2h-1v-3c0-0.6-0.4-1-1-1
				c-0.4,0-0.8,0.2-1.2,0.6v3.4h-0.9V80.5z"/>
			<path class="st2" d="M76.4,80.5h1.5v0.8h-1.5v2.5c0,0.5,0.3,0.8,0.8,0.8c0.2,0,0.5-0.1,0.7-0.2v0.8c-0.3,0.1-0.7,0.2-0.9,0.2
				c-0.9,0-1.5-0.6-1.5-1.5v-2.6h-0.9v-0.8h0.9v-1.3h1V80.5z"/>
			<path class="st2" d="M84,85.3h-0.9L82,81.7l-1.1,3.5h-0.9l-1.6-4.7h0.9l1.1,3.5l1.1-3.5h0.9l1.1,3.5l1.1-3.5h0.9L84,85.3z"/>
			<path class="st2" d="M86.9,78.6c0.3,0,0.6,0.2,0.6,0.6s-0.2,0.6-0.6,0.6c-0.3,0-0.6-0.2-0.6-0.6S86.6,78.6,86.9,78.6z M86.5,80.5
				h0.9v4.7h-0.9V80.5z"/>
			<path class="st2" d="M88.8,78.5h0.9v4l1.7-1.9h1.1l-2.1,2.3l2.1,2.4h-1.2l-1.8-2v2h-0.9V78.5z"/>
			<path class="st2" d="M93.5,78.5h0.9v4l1.7-1.9h1.1l-2.1,2.3l2.1,2.4h-1.2l-1.8-2v2h-0.9V78.5z"/>
			<path class="st2" d="M99.9,80.4c1.2,0,2,1,2,2.3c0,0.1,0,0.2,0,0.4h-3.3c0.1,0.9,0.7,1.5,1.6,1.5c0.4,0,0.9-0.2,1.4-0.5V85
				c-0.5,0.2-1,0.4-1.5,0.4c-1.4,0-2.4-1-2.4-2.5C97.7,81.4,98.6,80.4,99.9,80.4z M101,82.5c0-0.8-0.5-1.3-1.1-1.3
				c-0.7,0-1.2,0.5-1.3,1.3H101z"/>
			<path class="st2" d="M103,78.5h0.9v6.8H103V78.5z"/>
			<path class="st2" d="M105.9,78.6c0.3,0,0.6,0.2,0.6,0.6s-0.2,0.6-0.6,0.6c-0.3,0-0.6-0.2-0.6-0.6S105.5,78.6,105.9,78.6z
				 M105.4,80.5h0.9v4.7h-0.9V80.5z"/>
			<path class="st2" d="M107.8,80.5h0.9V81c0.4-0.4,0.9-0.6,1.5-0.6c1,0,1.7,0.7,1.7,1.7v3.2h-1v-3c0-0.6-0.4-1-1-1
				c-0.4,0-0.8,0.2-1.2,0.6v3.4h-0.9V80.5z"/>
			<path class="st2" d="M117.3,85.3c0,1.3-0.9,2.2-2.3,2.2c-0.5,0-1.1-0.1-1.6-0.4v-0.9c0.5,0.3,1,0.5,1.5,0.5
				c0.8,0,1.4-0.6,1.4-1.4v-0.4c-0.4,0.3-0.8,0.5-1.3,0.5c-1.3,0-2.1-1-2.1-2.5c0-1.5,0.9-2.5,2.1-2.5c0.4,0,0.9,0.2,1.3,0.5v-0.4h1
				V85.3z M115.2,84.6c0.4,0,0.8-0.2,1.1-0.5v-2.3c-0.3-0.3-0.7-0.5-1.1-0.5c-0.8,0-1.3,0.7-1.3,1.7
				C113.9,83.9,114.4,84.6,115.2,84.6z"/>
			<path class="st2" d="M118.5,84.2c0.4,0.3,0.9,0.4,1.3,0.4c0.5,0,0.9-0.3,0.9-0.7c0-1-2.3-0.5-2.3-2.1c0-0.8,0.7-1.4,1.7-1.4
				c0.4,0,0.9,0.1,1.3,0.3v0.9c-0.4-0.2-0.8-0.4-1.2-0.4c-0.5,0-0.8,0.3-0.8,0.6c0,0.9,2.3,0.5,2.3,2.1c0,0.9-0.7,1.4-1.8,1.4
				c-0.5,0-0.9-0.1-1.4-0.3V84.2z"/>
			<path class="st2" d="M122.8,80.5h0.9v0.4c0.4-0.3,0.8-0.5,1.3-0.5c1.3,0,2.1,1,2.1,2.5c0,1.5-0.9,2.5-2.1,2.5
				c-0.4,0-0.9-0.2-1.3-0.5v2.5h-0.9V80.5z M124.8,81.2c-0.4,0-0.8,0.2-1.1,0.5v2.3c0.3,0.3,0.7,0.5,1.1,0.5c0.8,0,1.3-0.7,1.3-1.7
				C126.1,81.9,125.6,81.2,124.8,81.2z"/>
			<path class="st2" d="M128,84.2c0.4,0.3,0.9,0.4,1.3,0.4c0.5,0,0.9-0.3,0.9-0.7c0-1-2.3-0.5-2.3-2.1c0-0.8,0.7-1.4,1.7-1.4
				c0.4,0,0.9,0.1,1.3,0.3v0.9c-0.4-0.2-0.8-0.4-1.2-0.4c-0.5,0-0.8,0.3-0.8,0.6c0,0.9,2.3,0.5,2.3,2.1c0,0.9-0.7,1.4-1.8,1.4
				c-0.5,0-0.9-0.1-1.4-0.3V84.2z"/>
			<path class="st2" d="M133.5,87.4h-0.9l0.9-2.2l-1.8-4.6h1L134,84l1.3-3.4h1L133.5,87.4z"/>
			<path class="st2" d="M139,80.4c0.5,0,0.9,0.1,1.4,0.3v0.9c-0.4-0.3-0.8-0.4-1.2-0.4c-0.9,0-1.5,0.7-1.5,1.7c0,1,0.6,1.7,1.5,1.7
				c0.4,0,0.8-0.1,1.2-0.4v0.9c-0.4,0.2-0.9,0.3-1.4,0.3c-1.4,0-2.4-1-2.4-2.5C136.6,81.5,137.6,80.4,139,80.4z"/>
			<path class="st2" d="M141.5,78.5h0.9V81c0.4-0.4,0.9-0.6,1.5-0.6c1,0,1.7,0.7,1.7,1.7v3.2h-1v-3c0-0.6-0.4-1-1-1
				c-0.4,0-0.8,0.2-1.2,0.6v3.4h-0.9V78.5z"/>
			<path class="st2" d="M149,80.4c1.4,0,2.4,1,2.4,2.5c0,1.5-1,2.5-2.4,2.5c-1.4,0-2.4-1-2.4-2.5C146.6,81.5,147.6,80.4,149,80.4z
				 M149,84.6c0.8,0,1.4-0.7,1.4-1.7c0-1-0.6-1.7-1.4-1.7c-0.8,0-1.4,0.7-1.4,1.7C147.6,83.9,148.2,84.6,149,84.6z"/>
			<path class="st2" d="M152.5,78.5h0.9v6.8h-0.9V78.5z"/>
			<path class="st2" d="M156.8,80.4c1.4,0,2.4,1,2.4,2.5c0,1.5-1,2.5-2.4,2.5c-1.4,0-2.4-1-2.4-2.5
				C154.5,81.5,155.5,80.4,156.8,80.4z M156.8,84.6c0.8,0,1.4-0.7,1.4-1.7c0-1-0.6-1.7-1.4-1.7c-0.8,0-1.4,0.7-1.4,1.7
				C155.5,83.9,156,84.6,156.8,84.6z"/>
			<path class="st2" d="M162.3,80.4c1.4,0,2.4,1,2.4,2.5c0,1.5-1,2.5-2.4,2.5c-1.4,0-2.4-1-2.4-2.5C160,81.5,160.9,80.4,162.3,80.4z
				 M162.3,84.6c0.8,0,1.4-0.7,1.4-1.7c0-1-0.6-1.7-1.4-1.7s-1.4,0.7-1.4,1.7C160.9,83.9,161.5,84.6,162.3,84.6z"/>
			<path class="st2" d="M169.8,85.3c0,1.3-0.9,2.2-2.3,2.2c-0.5,0-1.1-0.1-1.6-0.4v-0.9c0.5,0.3,1,0.5,1.5,0.5
				c0.8,0,1.4-0.6,1.4-1.4v-0.4c-0.4,0.3-0.8,0.5-1.3,0.5c-1.3,0-2.1-1-2.1-2.5c0-1.5,0.9-2.5,2.1-2.5c0.4,0,0.9,0.2,1.3,0.5v-0.4h1
				V85.3z M167.7,84.6c0.4,0,0.8-0.2,1.1-0.5v-2.3c-0.3-0.3-0.7-0.5-1.1-0.5c-0.8,0-1.3,0.7-1.3,1.7C166.4,83.9,167,84.6,167.7,84.6
				z"/>
			<path class="st2" d="M99.8,91.8c1.2,0,2,1,2,2.3c0,0.1,0,0.2,0,0.4h-3.3c0.1,0.9,0.7,1.5,1.6,1.5c0.4,0,0.9-0.2,1.4-0.5v0.8
				c-0.5,0.2-1,0.4-1.5,0.4c-1.4,0-2.4-1-2.4-2.5C97.5,92.8,98.5,91.8,99.8,91.8z M100.9,93.9c0-0.8-0.5-1.3-1.1-1.3
				c-0.7,0-1.2,0.5-1.3,1.3H100.9z"/>
			<path class="st2" d="M102.8,91.9h0.9v0.5c0.4-0.4,0.9-0.6,1.5-0.6c1,0,1.7,0.7,1.7,1.7v3.2h-1v-3c0-0.6-0.4-1-1-1
				c-0.4,0-0.8,0.2-1.2,0.6v3.4h-0.9V91.9z"/>
			<path class="st2" d="M110.6,95.4c0.6,0.4,1.2,0.6,1.8,0.6c0.8,0,1.4-0.4,1.4-1.1c0-1.5-3.3-0.8-3.3-3.1c0-1.1,0.9-1.8,2.2-1.8
				c0.6,0,1.1,0.1,1.7,0.4v0.9c-0.6-0.3-1.1-0.5-1.6-0.5c-0.8,0-1.3,0.4-1.3,1c0,1.5,3.3,0.8,3.3,3.1c0,1.1-0.9,1.9-2.3,1.9
				c-0.6,0-1.3-0.2-1.9-0.4V95.4z"/>
			<path class="st2" d="M115.9,91.9h0.9v0.4c0.4-0.3,0.8-0.5,1.3-0.5c1.3,0,2.1,1,2.1,2.5c0,1.5-0.9,2.5-2.1,2.5
				c-0.4,0-0.9-0.2-1.3-0.5v2.5h-0.9V91.9z M117.9,92.6c-0.4,0-0.8,0.2-1.1,0.5v2.3c0.3,0.3,0.7,0.5,1.1,0.5c0.8,0,1.3-0.7,1.3-1.7
				C119.3,93.3,118.7,92.6,117.9,92.6z"/>
			<path class="st2" d="M123.3,91.8c1.2,0,2,1,2,2.3c0,0.1,0,0.2,0,0.4H122c0.1,0.9,0.7,1.5,1.6,1.5c0.4,0,0.9-0.2,1.4-0.5v0.8
				c-0.5,0.2-1,0.4-1.5,0.4c-1.4,0-2.4-1-2.4-2.5C121,92.8,122,91.8,123.3,91.8z M124.4,93.9c0-0.8-0.5-1.3-1.1-1.3
				c-0.7,0-1.2,0.5-1.3,1.3H124.4z"/>
			<path class="st2" d="M126.3,89.9h0.9v6.8h-0.9V89.9z"/>
			<path class="st2" d="M130,91.9h1.5v0.8H130v2.5c0,0.5,0.3,0.8,0.8,0.8c0.2,0,0.5-0.1,0.7-0.2v0.8c-0.3,0.1-0.7,0.2-0.9,0.2
				c-0.9,0-1.5-0.6-1.5-1.5v-2.6h-0.9v-0.8h0.9v-1.3h1V91.9z"/>
			<path class="st2" d="M132.6,89.9h0.9v2.6c0.4-0.4,0.9-0.6,1.5-0.6c1,0,1.7,0.7,1.7,1.7v3.2h-1v-3c0-0.6-0.4-1-1-1
				c-0.4,0-0.8,0.2-1.2,0.6v3.4h-0.9V89.9z"/>
			<path class="st2" d="M140,91.8c1.2,0,2,1,2,2.3c0,0.1,0,0.2,0,0.4h-3.3c0.1,0.9,0.7,1.5,1.6,1.5c0.4,0,0.9-0.2,1.4-0.5v0.8
				c-0.5,0.2-1,0.4-1.5,0.4c-1.4,0-2.4-1-2.4-2.5C137.7,92.8,138.7,91.8,140,91.8z M141.1,93.9c0-0.8-0.5-1.3-1.1-1.3
				c-0.7,0-1.2,0.5-1.3,1.3H141.1z"/>
			<path class="st2" d="M143.1,91.9h0.9v0.5c0.4-0.4,0.8-0.6,1.3-0.6c0.1,0,0.3,0,0.4,0.1v0.9c-0.1,0-0.3-0.1-0.5-0.1
				c-0.4,0-0.9,0.2-1.2,0.7v3.3h-0.9V91.9z"/>
			<path class="st2" d="M149.1,96.2c-0.4,0.4-0.9,0.6-1.5,0.6c-0.9,0-1.5-0.6-1.5-1.4c0-1,0.9-1.7,2.3-1.7c0.2,0,0.5,0,0.7,0v-0.3
				c0-0.5-0.4-0.9-1-0.9c-0.5,0-1,0.1-1.5,0.4v-0.8c0.6-0.3,1.1-0.4,1.6-0.4c1.1,0,1.8,0.7,1.8,1.7v3.2h-0.9V96.2z M148,96
				c0.4,0,0.8-0.2,1.2-0.6v-1.1c-0.2,0-0.4,0-0.6,0c-0.8,0-1.4,0.4-1.4,0.9C147.1,95.7,147.5,96,148,96z"/>
			<path class="st2" d="M151.4,91.9h0.9v0.4c0.4-0.3,0.8-0.5,1.3-0.5c1.3,0,2.1,1,2.1,2.5c0,1.5-0.9,2.5-2.1,2.5
				c-0.4,0-0.9-0.2-1.3-0.5v2.5h-0.9V91.9z M153.5,92.6c-0.4,0-0.8,0.2-1.1,0.5v2.3c0.3,0.3,0.7,0.5,1.1,0.5c0.8,0,1.3-0.7,1.3-1.7
				C154.8,93.3,154.3,92.6,153.5,92.6z"/>
			<path class="st2" d="M158.8,91.8c1.2,0,2,1,2,2.3c0,0.1,0,0.2,0,0.4h-3.3c0.1,0.9,0.7,1.5,1.6,1.5c0.4,0,0.9-0.2,1.4-0.5v0.8
				c-0.5,0.2-1,0.4-1.5,0.4c-1.4,0-2.4-1-2.4-2.5C156.6,92.8,157.5,91.8,158.8,91.8z M159.9,93.9c0-0.8-0.5-1.3-1.1-1.3
				c-0.7,0-1.2,0.5-1.3,1.3H159.9z"/>
			<path class="st2" d="M165.9,96.7h-1v-0.5c-0.4,0.4-0.9,0.6-1.5,0.6c-1,0-1.7-0.7-1.7-1.7v-3.2h0.9v3c0,0.6,0.4,1,1,1
				c0.4,0,0.8-0.2,1.2-0.6v-3.4h1V96.7z"/>
			<path class="st2" d="M168.6,91.9h1.5v0.8h-1.5v2.5c0,0.5,0.3,0.8,0.8,0.8c0.2,0,0.5-0.1,0.7-0.2v0.8c-0.3,0.1-0.7,0.2-0.9,0.2
				c-0.9,0-1.5-0.6-1.5-1.5v-2.6h-0.9v-0.8h0.9v-1.3h1V91.9z"/>
		</g>
	</g>
</g>
<g id="Laag_2" class="st0">
	<g class="st1">
		<g>
			<g>
				<path class="st2" d="M44.3,61.7l-7.2,4.2v8.3l7.2,4.2l7.2-4.2v-8.3L44.3,61.7z M44,62.6v1.8c0,0-1.5,0-3.7,1.9
					C40.2,66.3,41.6,64.2,44,62.6z M38.1,66.8l1.3,1.2c-1.1,1.4-1.1,4.1-1.1,4.1C37.7,69.7,38.1,66.8,38.1,66.8z M38.3,73.8l1.6-0.7
					c0,0,0.9,1.7,3.3,2.6C43.2,75.7,40.2,75.1,38.3,73.8z M39.6,70c0-2.6,2.1-4.7,4.7-4.7c2.6,0,4.7,2.1,4.7,4.7
					c0,2.6-2.1,4.7-4.7,4.7C41.7,74.7,39.6,72.6,39.6,70z M44.4,77.4v-1.8c1.9-0.1,3.7-2,3.7-2C46.7,75.8,44.4,77.4,44.4,77.4z
					 M50.5,73.5l-1.4-1.1c1-1.6,0.7-4.2,0.7-4.2C50.6,70.4,50.5,73.5,50.5,73.5z M49.1,67.1c-1-1.5-3.6-2.3-3.6-2.3
					c3.3,0.3,5.1,1.4,5.1,1.4L49.1,67.1z"/>
				<path class="st2" d="M74.6,43.8c0,0-0.1-0.2-0.2-0.2s-0.3,0.1-0.3,0.1s-1.7,2.5-2.7,3.7c-0.9,1.2-2.9,0.3-3.4,0.1
					c-0.4-0.3-0.9-0.7-0.9-0.7c-1.3-1.2-0.7-2.3-0.7-2.3s2.1-4.2,2.1-4.2c0,0,0.1-0.2,0-0.3c-0.1-0.1-0.2-0.1-0.2-0.1
					c-3,0.9-4.7,2.2-6,3.8c-1.2,1.7-1.4,3.8-1.4,5c0,1.1-1.1,2.4-1.1,2.4l-3.9,4l-4.4-2.6c0,0-0.7-0.3-1,0.2c-0.2,0.4-1,1.7-1.3,2.3
					c-0.6-0.2-1.2-0.4-1.8-0.5l0,0c0,0,0-1.7,0-2.5c0-0.8-0.8-0.8-0.8-0.8h-2.4h-2.4c0,0-0.8,0-0.8,0.8c0,0.8,0,2.5,0,2.5l0,0
					c-0.6,0.1-1.2,0.3-1.8,0.5c-0.3-0.5-1-1.8-1.3-2.3c-0.3-0.5-1-0.2-1-0.2l-4.4,2.6l-3.9-4c0,0-1.1-1.2-1.1-2.4
					c0-1.1-0.2-3.3-1.4-5c-1.2-1.7-2.9-3-6-3.8c0,0-0.1,0-0.2,0.1c-0.1,0.1,0,0.2,0,0.3c0,0,2.1,4.2,2.1,4.2s0.6,1.2-0.7,2.3
					c0,0-0.4,0.4-0.9,0.7c-0.4,0.3-2.4,1.2-3.4-0.1c-0.9-1.2-2.7-3.7-2.7-3.7s-0.1-0.1-0.3-0.1s-0.2,0.2-0.2,0.2s-0.7,1.8-0.4,3.7
					c0.2,1.9,1,3.9,2.6,5.2c1.6,1.3,3,1.7,4.1,1.7c1.2,0,2,0.2,3,0.7c1,0.5,1.7,0.9,2.8,2.1s2.4,2.5,2.4,2.5l-1.8,3
					c0,0-0.3,0.7,0.2,1c0.5,0.3,2.3,1.3,2.3,1.3l0,0c-0.2,0.6-0.4,1.2-0.5,1.8l0,0h-2.6c0,0-0.7,0.1-0.7,0.7s0,4.8,0,4.8
					s-0.1,0.8,0.8,0.8c0.8,0,2.5,0,2.5,0l0,0c0.1,0.6,0.3,1.2,0.5,1.8l0,0L27,76.4c0,0-0.4,0.3-0.1,0.9s2.4,4.2,2.4,4.2
					s0.2,0.3,0.6,0.3l-6.4,6.6c0,0-0.6,0.8-1.5,1.1c-0.8,0.3-0.7,0.3-1.5,0.3s-2.9,0.5-4,2.5c-1.1,2-0.9,4.7,1.2,6.5
					c2.1,1.8,5.1,1.4,6.4,0.2c1.3-1.2,1.8-2.2,1.9-3.1c0.1-0.9,0.2-1.3,0.4-1.7s0.7-1.1,1.2-1.6c0.5-0.5,6.7-6.8,6.7-6.8l2.9,1.7
					c0,0,0.6,0.2,1-0.3c0.3-0.6,1.2-2.2,1.2-2.2l0,0c0.6,0.2,1.2,0.4,1.8,0.5l0,0V88c0,0,0,0.7,0.7,0.7c0.7,0,2.5,0,2.5,0
					s1.8,0,2.5,0c0.7,0,0.7-0.7,0.7-0.7v-2.6l0,0c0.6-0.1,1.2-0.3,1.8-0.5l0,0c0,0,0.9,1.6,1.2,2.2c0.3,0.6,1,0.3,1,0.3l2.9-1.7
					c0,0,6.2,6.3,6.7,6.8c0.5,0.5,1,1.2,1.2,1.6c0.2,0.4,0.3,0.8,0.4,1.7c0.1,0.9,0.6,1.9,1.9,3.1c1.3,1.2,4.3,1.6,6.4-0.2
					s2.2-4.5,1.2-6.5c-1.1-2-3.2-2.4-4-2.5c-0.8,0-0.7,0-1.5-0.3c-0.8-0.3-1.5-1.1-1.5-1.1l-6.4-6.6c0.4,0,0.6-0.3,0.6-0.3
					s2.1-3.7,2.4-4.2c0.3-0.5-0.1-0.9-0.1-0.9L59.3,75l0,0c0.2-0.6,0.4-1.2,0.5-1.8l0,0c0,0,1.7,0,2.5,0s0.8-0.8,0.8-0.8
					s0-4.2,0-4.8s-0.7-0.7-0.7-0.7h-2.6l0,0c-0.1-0.6-0.3-1.2-0.5-1.8l0,0c0,0,1.8-1,2.3-1.3c0.5-0.3,0.2-1,0.2-1l-1.8-3
					c0,0,1.3-1.4,2.4-2.5s1.8-1.6,2.8-2.1s1.8-0.6,3-0.7c1.2,0,2.5-0.4,4.1-1.7c1.6-1.3,2.4-3.3,2.6-5.2
					C75.2,45.7,74.6,43.8,74.6,43.8z M13.8,47.2c-0.1-1.7,0.4-3,0.4-3s0.1-0.2,0.3-0.1c0.2,0.1,0.1,0.3,0.1,0.3
					c-0.3,0.8-0.5,1.7-0.5,2.7c0,3.1,1.9,5.1,2.9,5.9c0.2,0.1,0.3,0.3,0.5,0.4c0,0-0.2-0.1-0.5-0.4C14.3,50.8,14,48.8,13.8,47.2z
					 M28.6,72.4c0,0.1-0.1,0.1-0.1,0.1h-0.4c0,0,0.2-0.1,0.2-0.1c0.1-0.1,0.1-0.2,0.1-0.2l0.1-0.6C28.6,71.6,28.6,72.3,28.6,72.4z
					 M26.6,67.7c0,0-0.3,0-0.3,0.3c0,0.3-0.4,4-0.4,4v-4.4c0,0,0-0.3,0.4-0.3c0.4,0,2.5,0,2.5,0L26.6,67.7z M59.9,67.6
					c0-0.1,0.1-0.1,0.1-0.1h0.4c0,0-0.2,0.1-0.2,0.1C60,67.7,60,67.8,60,67.8l-0.1,0.6C59.9,68.5,59.9,67.7,59.9,67.6z M62,72.3
					c0,0,0.3,0,0.3-0.3c0-0.3,0.4-4,0.4-4v4.4c0,0,0,0.3-0.4,0.3c-0.4,0-2.5,0-2.5,0L62,72.3z M66,44.3l1.8-2.9c0,0-0.6,1.2-1.2,2.3
					c-0.3,0.5-0.5,1.2-0.5,1.6c0,0.9,0.9,1.8,0.9,1.8c-1.1-0.6-1.3-1.3-1.3-1.9C65.8,44.8,66,44.3,66,44.3z M60.1,51.2
					c0.3-0.5,0.7-1.3,0.7-1.3s0.1-0.2,0.3-0.1c0.2,0.1,0.1,0.2,0.1,0.2s-0.6,1-1,1.4c-0.4,0.4-2,1.9-2,1.9S59.8,51.7,60.1,51.2z
					 M55.4,55.3c0,0,0.3,0.1,0.1,0.5c-0.2,0.3-1.2,2.1-1.2,2.1l0.7-2c0,0,0.1-0.3-0.1-0.5c-0.3-0.2-3.3-2.3-3.3-2.3L55.4,55.3z
					 M49.9,55.1l0.2-0.3c0,0,0,0.2,0,0.3c0,0.1,0.1,0.2,0.1,0.2l0.5,0.4c0,0-0.7-0.4-0.8-0.4C49.9,55.2,49.9,55.1,49.9,55.1z
					 M46.6,51.7c0,0,0.3,0,0.3,0.4c0,0.4,0,2.5,0,2.5l-0.4-2.1c0,0,0-0.3-0.3-0.3c-0.3,0-4-0.4-4-0.4H46.6z M41.7,53.9
					c0,0,0.1,0.2,0.1,0.2c0.1,0.1,0.2,0.1,0.2,0.1l0.6,0.1c0,0-0.8,0-0.9,0c-0.1,0-0.1-0.1-0.1-0.1V53.9z M37.1,53
					c0,0,0.3-0.2,0.5,0.2c0.2,0.3,1.2,2.1,1.2,2.1l-1.4-1.7c0,0-0.2-0.2-0.5-0.1c-0.3,0.1-3.6,1.7-3.6,1.7L37.1,53z M35.1,57.2
					c0,0-0.7,0.4-0.8,0.4c-0.1,0.1-0.2,0-0.2,0L34,57.3c0,0,0.2,0.1,0.2,0.1c0.1,0,0.2,0,0.2,0L35.1,57.2z M27.4,49.9
					c0.2-0.1,0.3,0.1,0.3,0.1s0.4,0.8,0.7,1.3c0.3,0.5,2,2.2,2,2.2s-1.7-1.5-2-1.9c-0.4-0.4-1-1.4-1-1.4S27.2,49.9,27.4,49.9z
					 M22.4,45.3c0-0.4-0.2-1-0.5-1.6c-0.6-1.1-1.2-2.3-1.2-2.3l1.8,2.9c0,0,0.3,0.5,0.2,1c0,0.5-0.2,1.3-1.3,1.9
					C21.5,47.1,22.4,46.2,22.4,45.3z M24.3,53.5c-1.1,0.4-1.9,0.6-4.8,0.4c0,0,0,0,0,0c0,0,0,0,0,0c0.2,0,2.7,0.1,4.4-0.7
					c1.9-0.8,1.9-1.4,3.4-4c0,0-0.3,1.2-1,2.2C25.7,52.6,25.3,53.1,24.3,53.5z M27.6,56.2c-0.5-0.5-0.5-1.4,0-1.9
					c0.5-0.5,1.4-0.5,1.9,0l4.1,4.1l-1.1,1.1l-2-1.2c0,0-0.3-0.2-0.7-0.1L27.6,56.2z M29.5,58.8c0,0,0.1-0.3,0.5-0.1
					c0.3,0.2,2.1,1.2,2.1,1.2l-2-0.7c0,0-0.3-0.1-0.5,0.1c-0.2,0.3-2.3,3.3-2.3,3.3L29.5,58.8z M31.7,79.8l-0.2-0.6
					c0,0,0.4,0.7,0.4,0.8c0.1,0.1,0,0.2,0,0.2l-0.3,0.2c0,0,0.1-0.2,0.1-0.2C31.8,79.9,31.7,79.8,31.7,79.8z M27.7,77.3
					c0.1,0.3,1.7,3.6,1.7,3.6l-2.2-3.8c0,0-0.2-0.3,0.2-0.5c0.3-0.2,2.1-1.2,2.1-1.2l-1.7,1.4C27.8,76.9,27.6,77,27.7,77.3z
					 M29.5,64.3c-0.1,0.1-0.2,0-0.2,0L29,64.2c0,0,0.2,0,0.3,0c0.1,0,0.2-0.1,0.2-0.1l0.4-0.5C29.9,63.6,29.6,64.2,29.5,64.3z
					 M22.5,99c-0.6,0.3-1.2,0.4-1.9,0.3c-2.4-0.1-4.2-2.1-4.1-4.4c0-0.8,0.3-1.6,0.7-2.2c-0.3,0.6-0.6,1.3-0.6,2
					c-0.1,2.3,1.7,4.3,4.1,4.4c0.6,0,1.2-0.1,1.8-0.3C22.4,98.9,22.5,98.8,22.5,99C22.5,99,22.5,99,22.5,99z M24.2,95.6l-0.7,0.8
					l-0.2,1.1c0,0.1-0.1,0.1-0.1,0.1l-1,0.2l-0.8,0.7c0,0-0.1,0-0.1,0c0,0,0,0-0.1,0l-0.9-0.4l-1.1,0.1c-0.1,0-0.1,0-0.1-0.1
					l-0.6-0.9l-0.9-0.6c0,0-0.1-0.1-0.1-0.1l0.1-1.1l-0.4-0.9c0-0.1,0-0.1,0-0.2l0.7-0.8l0.2-1c0-0.1,0.1-0.1,0.1-0.1l1.1-0.3
					l0.7-0.6c0,0,0.1,0,0.2,0l1,0.4l1-0.1c0.1,0,0.1,0,0.1,0.1l0.6,0.9l0.9,0.5c0.1,0,0.1,0.1,0.1,0.1l-0.1,1l0.4,1
					C24.3,95.5,24.3,95.6,24.2,95.6z M24.4,97.2c0.3-0.6,0.5-1.3,0.5-2c0-2.3-1.9-4.2-4.2-4.2c-0.6,0-1.2,0.1-1.7,0.4c0,0,0,0-0.1,0
					c0-0.1,0-0.1,0-0.1c0.6-0.3,1.2-0.4,1.9-0.4c2.4,0,4.3,1.9,4.3,4.3C25,95.8,24.8,96.5,24.4,97.2z M21.9,90c0,0,1.6,0.2,2.8,1.5
					c0.9,1,1.1,2.1,1.1,2.6C25.8,94.1,25.2,91.1,21.9,90z M27.4,90.5c-0.5,0.5-1.4,0.5-1.9,0c-0.5-0.5-0.5-1.4,0-1.9l7.4-7.7
					l0.9,0.8c0,0-1.3,1.8-1.4,2.5c0,0.2,0,0.4,0.4,0.7L27.4,90.5z M33.1,84.7c0,0-0.3-0.1-0.1-0.5c0.2-0.3,1.2-2.1,1.2-2.1l-0.7,2
					c0,0-0.1,0.3,0.1,0.5c0.3,0.2,3.3,2.3,3.3,2.3L33.1,84.7z M38.6,84.9l-0.2,0.3c0,0,0-0.2,0-0.3c0-0.1-0.1-0.2-0.1-0.2l-0.5-0.4
					c0,0,0.7,0.4,0.8,0.4C38.6,84.8,38.6,84.9,38.6,84.9z M42,88.4c0,0-0.3,0-0.3-0.4s0-2.5,0-2.5l0.4,2.1c0,0,0,0.3,0.3,0.3
					c0.3,0,4,0.4,4,0.4H42z M46.8,86.1c0,0-0.1-0.2-0.1-0.2c-0.1-0.1-0.2-0.1-0.2-0.1l-0.6-0.1c0,0,0.8,0,0.9,0
					c0.1,0,0.1,0.1,0.1,0.1V86.1z M44.3,82.4c-6.8,0-12.4-5.5-12.4-12.4s5.5-12.4,12.4-12.4S56.7,63.2,56.7,70S51.2,82.4,44.3,82.4z
					 M56.8,60.3l0.2,0.6c0,0-0.4-0.7-0.4-0.8c-0.1-0.1,0-0.2,0-0.2l0.3-0.2c0,0-0.1,0.2-0.1,0.2C56.8,60.1,56.8,60.3,56.8,60.3z
					 M54.5,82.7c0,0-0.2-0.1-0.2-0.1c-0.1,0-0.2,0-0.2,0l-0.6,0.2c0,0,0.7-0.4,0.8-0.4s0.2,0,0.2,0L54.5,82.7z M51.5,87.1
					c0,0-0.3,0.2-0.5-0.2c-0.2-0.3-1.2-2.1-1.2-2.1l1.4,1.7c0,0,0.2,0.2,0.5,0.1c0.3-0.1,3.6-1.7,3.6-1.7L51.5,87.1z M71.6,93.2
					C71.6,93.2,71.6,93.2,71.6,93.2c0.1-0.1,0.1-0.1,0.1-0.1c0.3,0.6,0.4,1.2,0.4,1.9c0,2.4-1.9,4.3-4.3,4.3c-0.8,0-1.6-0.2-2.2-0.6
					c0.6,0.3,1.3,0.5,2,0.5c2.3,0,4.2-1.9,4.2-4.2C72,94.3,71.8,93.7,71.6,93.2z M70.3,92.5l0.3,1l0.7,0.7c0,0,0,0.1,0,0.1
					c0,0,0,0,0,0.1L71,95.3l0.1,1c0,0.1,0,0.1-0.1,0.1l-0.9,0.6l-0.5,0.9c0,0.1-0.1,0.1-0.1,0.1l-1.1,0l-0.9,0.5c-0.1,0-0.1,0-0.2,0
					l-0.8-0.7l-1-0.2c-0.1,0-0.1-0.1-0.1-0.1l-0.3-1.1l-0.7-0.7c0,0-0.1-0.1,0-0.2l0.4-1l-0.1-1c0-0.1,0-0.1,0.1-0.1l0.9-0.6L66,92
					c0-0.1,0.1-0.1,0.1-0.1l1,0.1l1-0.5c0.1,0,0.1,0,0.2,0l0.8,0.6l1.1,0.2C70.2,92.4,70.3,92.4,70.3,92.5z M67.6,90.8
					c0.8,0,1.6,0.2,2.2,0.5c-0.6-0.3-1.3-0.5-2.1-0.4c-2.3,0.1-4.2,2.1-4.1,4.4c0,0.6,0.2,1.2,0.4,1.7c0,0,0,0,0,0.1
					c-0.1,0-0.1,0-0.1,0c-0.3-0.6-0.5-1.2-0.5-1.8C63.4,92.9,65.3,90.9,67.6,90.8z M66.7,90.1c0,0-2.9,0.7-3.9,4.1
					c0,0,0.2-1.6,1.4-2.9C65.1,90.3,66.2,90.1,66.7,90.1z M63,88.7c0.5,0.5,0.5,1.4,0,1.9s-1.4,0.5-1.9,0L55.7,85
					c0.4-0.3,0.4-0.5,0.4-0.7c0-0.7-1.4-2.5-1.4-2.5l0.9-0.8L63,88.7z M59,81.2c0,0-0.1,0.3-0.5,0.1c-0.3-0.2-2.1-1.2-2.1-1.2l2,0.7
					c0,0,0.3,0.1,0.5-0.1c0.2-0.3,2.3-3.3,2.3-3.3L59,81.2z M59.5,75.9c0,0-0.2,0-0.3,0C59.1,75.9,59,76,59,76l-0.4,0.5
					c0,0,0.4-0.7,0.4-0.8c0.1-0.1,0.2,0,0.2,0L59.5,75.9z M61.3,62.8c0,0,0.2,0.3-0.2,0.5c-0.3,0.2-2.1,1.2-2.1,1.2l1.7-1.4
					c0,0,0.2-0.2,0.1-0.5c-0.1-0.3-1.7-3.6-1.7-3.6L61.3,62.8z M60.9,56.2l-2.1,2.1c-0.4-0.1-0.7,0.1-0.7,0.1l-2,1.2L55,58.4
					l4.1-4.1c0.5-0.5,1.4-0.5,1.9,0C61.4,54.8,61.4,55.7,60.9,56.2z M64.3,53.5c-1.1-0.4-1.4-0.9-2.1-2c-0.6-1.1-1-2.2-1-2.2
					c1.5,2.6,1.6,3.1,3.4,4c1.8,0.8,4.2,0.7,4.4,0.7c0,0,0,0,0,0c0,0,0,0,0,0C66.1,54.1,65.3,53.9,64.3,53.5z M74.7,47.2
					c-0.1,1.6-0.5,3.6-3.2,5.8c-0.3,0.3-0.5,0.4-0.5,0.4c0.2-0.1,0.3-0.3,0.5-0.4c1-0.8,2.9-2.8,2.9-5.9c0-1-0.2-1.9-0.5-2.7
					c0,0-0.1-0.2,0.1-0.3c0.2-0.1,0.3,0.1,0.3,0.1S74.9,45.5,74.7,47.2z"/>
			</g>
			<g>
				<g>
					<path class="st3" d="M27.8,54.5c-0.1,0.1-0.2,0.3-0.3,0.5l3.9,4l-0.6-0.3l-3.4-3.4l0,0c0,0.3,0.1,0.6,0.3,0.9c0,0,0,0,0,0
						l2.2,2.2c0.2,0,0.4,0.1,0.4,0.1l2,1.2l0.2-0.2L27.8,54.5C27.9,54.5,27.8,54.5,27.8,54.5z"/>
					<path class="st3" d="M29.4,54.5C29.4,54.5,29.4,54.5,29.4,54.5c-0.4-0.4-0.9-0.4-1.3-0.2l4.7,4.9l0.7-0.7L29.4,54.5z"/>
				</g>
				<g>
					<path class="st3" d="M60.7,54.5c0.1,0.1,0.2,0.3,0.3,0.5l-3.9,4l0.6-0.3l3.4-3.4l0,0c0,0.3-0.1,0.6-0.3,0.9c0,0,0,0,0,0
						l-2.2,2.2c-0.2,0-0.4,0.1-0.4,0.1l-2,1.2l-0.2-0.2L60.7,54.5C60.7,54.5,60.7,54.5,60.7,54.5z"/>
					<path class="st3" d="M59.2,54.5C59.2,54.5,59.2,54.5,59.2,54.5c0.4-0.4,0.9-0.4,1.3-0.2l-4.7,4.9l-0.7-0.7L59.2,54.5z"/>
				</g>
				<g>
					<path class="st3" d="M33.5,81.5l-0.4-0.3l-7.4,7.6c-0.3,0.3-0.4,0.6-0.3,0.9L33.5,81.5z"/>
					<path class="st3" d="M32.5,84.3c0-0.2,0.2-0.6,0.3-0.9l0,0L26,90.5c0.4,0.2,0.9,0.2,1.3-0.2l5.4-5.5
						C32.5,84.6,32.4,84.5,32.5,84.3z"/>
					<path class="st3" d="M32.9,83.3L32.9,83.3c0.4-0.7,1-1.5,1-1.5l-0.3-0.3l0,0l-8.1,8.4c0.1,0.1,0.1,0.3,0.3,0.4
						c0,0,0.1,0.1,0.1,0.1L32.9,83.3z"/>
				</g>
				<g>
					<path class="st3" d="M55.1,81.5l0.4-0.3l7.4,7.6c0.3,0.3,0.4,0.6,0.3,0.9L55.1,81.5z"/>
					<path class="st3" d="M56.1,84.3c0-0.2-0.2-0.6-0.3-0.9l0,0l6.8,7.1c-0.4,0.2-0.9,0.2-1.3-0.2l-5.4-5.5
						C56.1,84.6,56.1,84.5,56.1,84.3z"/>
					<path class="st3" d="M55.7,83.3L55.7,83.3c-0.4-0.7-1-1.5-1-1.5l0.3-0.3l0,0l8.1,8.4c-0.1,0.1-0.1,0.3-0.3,0.4
						c0,0-0.1,0.1-0.1,0.1L55.7,83.3z"/>
				</g>
				<path class="st3" d="M16.7,50.2c0,0,1.3,3.6,6.5,2.4c0,0-1.9,1.5-4.2,0.8C16.8,52.8,16.7,50.2,16.7,50.2z"/>
				<path class="st3" d="M21.9,54.2c0,0,2.6,0.4,4.5,2.9c0,0-2.2-2.3-4.4-2.5c0,0-0.4,0-0.4-0.2S21.9,54.2,21.9,54.2z"/>
				<path class="st3" d="M21.3,40.5c0,0,5.9,1.3,6.2,7.7C27.6,48.2,27.3,43.5,21.3,40.5z"/>
				<path class="st3" d="M18.7,48.5c0.8,0,1.5-0.2,2.2-1.1c-0.1,0.1-0.2,0.1-0.3,0.2c-0.4,0.3-2.4,1.2-3.4-0.1
					c-0.8-1.1-2.3-3.2-2.6-3.6h0c0,0,0.1,0.4,0.2,0.6c0.2,0.2,2.4,3.4,2.4,3.4S17.8,48.5,18.7,48.5z"/>
				<path class="st3" d="M72,50.1c0,0-1.3,3.6-6.5,2.4c0,0,1.9,1.5,4.2,0.8S72,50.1,72,50.1z"/>
				<path class="st3" d="M66.8,54.1c0,0-2.6,0.4-4.5,2.9c0,0,2.2-2.3,4.4-2.5c0,0,0.4,0,0.4-0.2S66.8,54.1,66.8,54.1z"/>
				<path class="st3" d="M67.4,40.4c0,0-5.9,1.3-6.2,7.7C61.1,48.2,61.4,43.5,67.4,40.4z"/>
				<path class="st3" d="M70,48.5c-0.8,0-1.5-0.2-2.2-1.1c0.1,0.1,0.2,0.1,0.3,0.2c0.4,0.3,2.4,1.2,3.4-0.1c0.8-1.1,2.3-3.2,2.6-3.6
					h0c0,0-0.1,0.4-0.2,0.6c-0.2,0.2-2.4,3.4-2.4,3.4S70.9,48.5,70,48.5z"/>
				<path class="st3" d="M18.5,92.1c0,0,0.8-0.1,1.3-0.6C19.7,91.5,19.3,92.3,18.5,92.1z"/>
				<path class="st3" d="M17.2,94c0,0,0.6-0.6,0.6-1.3C17.9,92.7,18,93.6,17.2,94z"/>
				<path class="st3" d="M17.2,96.3c0,0,0.1-0.8-0.2-1.4C17,94.9,17.6,95.5,17.2,96.3z"/>
				<path class="st3" d="M18.7,98.2c0,0-0.4-0.8-1-1.1C17.7,97.1,18.6,97.3,18.7,98.2z"/>
				<path class="st3" d="M20.9,98.7c0,0-0.8-0.3-1.4-0.2C19.5,98.5,20.3,98.1,20.9,98.7z"/>
				<path class="st3" d="M23,98c0,0-0.8,0.2-1.2,0.7C21.8,98.7,22.1,97.8,23,98z"/>
				<path class="st3" d="M24.4,96.1c0,0-0.5,0.6-0.6,1.3C23.8,97.4,23.6,96.5,24.4,96.1z"/>
				<path class="st3" d="M24.3,93.8c0,0-0.1,0.8,0.3,1.4C24.6,95.2,23.9,94.6,24.3,93.8z"/>
				<path class="st3" d="M22.9,92c0,0,0.5,0.7,1.1,0.9C24,92.9,23.1,92.9,22.9,92z"/>
				<path class="st3" d="M20.7,91.4c0,0,0.8,0.2,1.4,0C22.1,91.3,21.4,91.9,20.7,91.4z"/>
				<path class="st3" d="M20.7,90c0,0,1.6-0.1,2.8-1.4c0,0,0.1-0.1,0.3,0c0.2,0.1,0,0.3,0,0.3S22.8,90.1,20.7,90z"/>
				<path class="st3" d="M25.7,95.7c0,0,0-1.6,1.3-2.8c0,0,0.1-0.2,0-0.3c-0.2-0.2-0.3,0-0.3,0S25.6,93.6,25.7,95.7z"/>
				<path class="st3" d="M65,97.5c0,0-0.2-0.8-0.7-1.3C64.3,96.2,65.1,96.6,65,97.5z"/>
				<path class="st3" d="M66.9,98.6c0,0-0.6-0.5-1.3-0.6C65.6,98,66.5,97.8,66.9,98.6z"/>
				<path class="st3" d="M69.3,98.5c0,0-0.8-0.1-1.4,0.3C67.9,98.8,68.5,98.1,69.3,98.5z"/>
				<path class="st3" d="M71,97c0,0-0.7,0.4-1,1C70,98,70.2,97.1,71,97z"/>
				<path class="st3" d="M71.5,94.7c0,0-0.3,0.8-0.1,1.4C71.4,96.1,70.9,95.4,71.5,94.7z"/>
				<path class="st3" d="M70.7,92.7c0,0,0.2,0.8,0.7,1.2C71.4,93.9,70.6,93.5,70.7,92.7z"/>
				<path class="st3" d="M68.7,91.4c0,0,0.7,0.5,1.3,0.5C70,91.9,69.2,92.1,68.7,91.4z"/>
				<path class="st3" d="M66.5,91.5c0,0,0.8,0.1,1.4-0.3C67.9,91.2,67.3,91.9,66.5,91.5z"/>
				<path class="st3" d="M64.7,93c0,0,0.7-0.5,0.9-1.1C65.6,91.9,65.6,92.8,64.7,93z"/>
				<path class="st3" d="M64.2,95.2c0,0,0.2-0.8-0.1-1.4C64.1,93.8,64.7,94.5,64.2,95.2z"/>
				<path class="st3" d="M62.8,95.3c0,0-0.1-1.6-1.5-2.7c0,0-0.2-0.1,0-0.3s0.3,0,0.3,0S62.8,93.2,62.8,95.3z"/>
				<path class="st3" d="M68.3,90.1c0,0-1.6,0-2.9-1.2c0,0-0.2-0.1-0.3,0s0,0.3,0,0.3S66.2,90.3,68.3,90.1z"/>
			</g>
		</g>
		<g>
			<path class="st2" d="M92.3,58.1h2.2l-3.9,10.4H88l-3.9-10.4h2.2l3,8.3L92.3,58.1z"/>
			<path class="st2" d="M94.3,64.8c0-2.2,1.5-3.8,3.5-3.8c1.1,0,1.9,0.4,2.4,1l0-0.9h1.9v7.3h-1.9l0-0.9c-0.5,0.6-1.3,1-2.4,1
				C95.9,68.6,94.3,67,94.3,64.8z M98.3,62.7c-1.2,0-2,0.9-2,2.1c0,1.2,0.8,2.1,2,2.1c1.2,0,2-0.9,2-2.1
				C100.3,63.6,99.4,62.7,98.3,62.7z"/>
			<path class="st2" d="M111.1,63.9v4.6h-2v-4.1c0-1-0.7-1.6-1.5-1.6c-0.9,0-1.6,0.5-1.6,1.6v4.1h-2v-7.3h1.9l0,0.8
				c0.4-0.5,1.2-1,2.3-1C109.9,61,111.1,62.1,111.1,63.9z"/>
			<path class="st2" d="M116.3,64.8c0-2.2,1.5-3.8,3.6-3.8c1.2,0,1.9,0.4,2.4,1v-4.3h1.9v10.8h-1.9l0-0.8c-0.5,0.6-1.3,0.9-2.4,0.9
				C117.7,68.6,116.3,67,116.3,64.8z M120.2,62.7c-1.2,0-2,0.9-2,2c0,1.2,0.8,2.1,2,2.1c1.2,0,2-0.9,2-2.1
				C122.2,63.6,121.4,62.7,120.2,62.7z"/>
			<path class="st2" d="M132.6,67.9c-0.7,0.4-1.7,0.7-2.8,0.7c-2.6,0-4.3-1.5-4.3-3.8c0-2.2,1.6-3.8,3.8-3.8c2.3,0,4,1.7,3.5,4.4
				h-5.3c0.2,1,1.1,1.5,2.3,1.5c0.9,0,1.8-0.2,2.5-0.6L132.6,67.9z M131.1,64.1c-0.1-0.8-0.7-1.4-1.7-1.4c-1,0-1.7,0.6-1.8,1.4
				H131.1z"/>
			<path class="st2" d="M136.3,62.1c0.4-0.8,1.1-1.2,1.9-1.2c0.4,0,0.8,0.1,1,0.2l-0.2,1.7c-0.2-0.1-0.5-0.2-0.9-0.2
				c-0.9,0-1.8,0.5-1.8,2v3.8h-2v-7.3h1.9L136.3,62.1z"/>
			<path class="st2" d="M151.7,68.5h-7.8V58.1h7.7v1.8h-5.6v2.4h4.9v1.8h-4.9v2.6h5.7V68.5z"/>
			<path class="st2" d="M155.1,68.5h-2V57.7h2V68.5z"/>
			<path class="st2" d="M160.4,64.1c1.5,0.3,2.2,0.9,2.2,2.2c0,1.5-1.2,2.3-3.1,2.3c-1.1,0-2.2-0.2-2.8-0.5l0.2-1.6
				c0.7,0.3,1.7,0.5,2.5,0.5c1,0,1.4-0.2,1.4-0.6c0-0.4-0.3-0.6-1.2-0.7l-0.9-0.2c-1.4-0.2-2.1-1-2.1-2.2c0-1.4,1.3-2.3,3.2-2.3
				c0.9,0,1.8,0.2,2.5,0.5l-0.2,1.6c-0.5-0.2-1.5-0.4-2.2-0.4c-1,0-1.4,0.2-1.4,0.7c0,0.4,0.3,0.5,1.2,0.7L160.4,64.1z"/>
			<path class="st2" d="M166.5,62.8v3c0,0.8,0.4,1.1,1.1,1.1c0.4,0,0.8-0.1,1.2-0.2l0.2,1.6c-0.5,0.2-1.2,0.3-1.8,0.3
				c-1.6,0-2.7-0.8-2.7-2.6v-3.3h-1.2v-1.6h1.2v-2.4h1.9v2.4h2.1v1.6H166.5z"/>
			<path class="st2" d="M89.6,76.9c3.3,0,5.2,2,5.2,5.2c0,3.2-1.9,5.2-5.2,5.2h-4.5V76.9H89.6z M92.7,82c0-2.2-1-3.4-3.3-3.4h-2.2
				v6.8h2.2C91.7,85.5,92.7,84.2,92.7,82z"/>
			<path class="st2" d="M96.2,77.5c0-0.7,0.5-1.1,1.1-1.1s1.1,0.5,1.1,1.1c0,0.7-0.5,1.1-1.1,1.1S96.2,78.2,96.2,77.5z M96.3,87.2
				v-7.3h2v7.3H96.3z"/>
			<path class="st2" d="M106.8,86.7c-0.7,0.4-1.7,0.7-2.8,0.7c-2.6,0-4.3-1.5-4.3-3.8c0-2.2,1.6-3.8,3.8-3.8c2.3,0,4,1.7,3.5,4.4
				h-5.3c0.2,1,1.1,1.5,2.3,1.5c0.9,0,1.8-0.2,2.5-0.6L106.8,86.7z M105.2,82.8c-0.1-0.8-0.7-1.4-1.7-1.4c-1,0-1.7,0.6-1.8,1.4
				H105.2z"/>
			<path class="st2" d="M112,82.9c1.5,0.3,2.2,0.9,2.2,2.2c0,1.5-1.2,2.3-3.1,2.3c-1.1,0-2.2-0.2-2.8-0.5l0.2-1.6
				c0.7,0.3,1.7,0.5,2.5,0.5c1,0,1.4-0.2,1.4-0.6c0-0.4-0.3-0.6-1.2-0.7l-0.9-0.2c-1.4-0.2-2.1-1-2.1-2.2c0-1.4,1.3-2.3,3.2-2.3
				c0.9,0,1.8,0.2,2.5,0.5l-0.2,1.6c-0.5-0.2-1.5-0.4-2.2-0.4c-1,0-1.4,0.2-1.4,0.7c0,0.4,0.3,0.5,1.2,0.7L112,82.9z"/>
			<path class="st2" d="M122.2,86.7c-0.7,0.4-1.7,0.7-2.8,0.7c-2.6,0-4.3-1.5-4.3-3.8c0-2.2,1.6-3.8,3.8-3.8c2.3,0,4,1.7,3.5,4.4
				h-5.3c0.2,1,1.1,1.5,2.3,1.5c0.9,0,1.8-0.2,2.5-0.6L122.2,86.7z M120.6,82.8c-0.1-0.8-0.7-1.4-1.7-1.4c-1,0-1.7,0.6-1.8,1.4
				H120.6z"/>
			<path class="st2" d="M125.9,87.2h-2V76.5h2V87.2z"/>
			<path class="st2" d="M133.5,78.7h-3.2v-1.8h8.5v1.8h-3.2v8.5h-2.1V78.7z"/>
			<path class="st2" d="M144.9,86.7c-0.7,0.4-1.7,0.7-2.8,0.7c-2.6,0-4.3-1.5-4.3-3.8c0-2.2,1.6-3.8,3.8-3.8c2.3,0,4,1.7,3.5,4.4
				h-5.3c0.2,1,1.1,1.5,2.3,1.5c0.9,0,1.8-0.2,2.5-0.6L144.9,86.7z M143.4,82.8c-0.1-0.8-0.7-1.4-1.7-1.4c-1,0-1.7,0.6-1.8,1.4
				H143.4z"/>
			<path class="st2" d="M150.4,79.7c0.9,0,1.7,0.2,2.3,0.5l-0.2,1.7c-0.5-0.2-1.2-0.4-1.9-0.4c-1.3,0-2.4,0.7-2.4,2c0,1.3,1,2,2.3,2
				c0.7,0,1.4-0.2,2-0.5l0.2,1.7c-0.8,0.3-1.5,0.5-2.4,0.5c-2.4,0-4.1-1.6-4.1-3.8C146.3,81.2,148,79.7,150.4,79.7z"/>
			<path class="st2" d="M161.2,82.6v4.6h-2v-4.1c0-1-0.6-1.6-1.5-1.6c-0.9,0-1.6,0.5-1.6,1.6v4.1h-2V76.5h2v4.2
				c0.4-0.5,1.1-0.9,2.2-0.9C160,79.7,161.2,80.9,161.2,82.6z"/>
			<path class="st2" d="M170,82.6v4.6h-2v-4.1c0-1-0.7-1.6-1.5-1.6c-0.9,0-1.6,0.5-1.6,1.6v4.1h-2v-7.3h1.9l0,0.8
				c0.4-0.5,1.2-1,2.3-1C168.8,79.7,170,80.9,170,82.6z"/>
			<path class="st2" d="M171.7,77.5c0-0.7,0.5-1.1,1.1-1.1s1.1,0.5,1.1,1.1c0,0.7-0.5,1.1-1.1,1.1S171.7,78.2,171.7,77.5z
				 M171.8,87.2v-7.3h2v7.3H171.8z"/>
			<path class="st2" d="M182.2,86.7c-0.7,0.4-1.7,0.7-2.8,0.7c-2.6,0-4.3-1.5-4.3-3.8c0-2.2,1.6-3.8,3.8-3.8c2.3,0,4,1.7,3.5,4.4
				h-5.3c0.2,1,1.1,1.5,2.3,1.5c0.9,0,1.8-0.2,2.5-0.6L182.2,86.7z M180.7,82.8c-0.1-0.8-0.7-1.4-1.7-1.4c-1,0-1.7,0.6-1.8,1.4
				H180.7z"/>
			<path class="st2" d="M185.9,82.6h1.1l1.6-2.7h2.2l-2.3,3.6l2.8,3.8h-2.3l-2.1-3h-1.1v3h-2V76.5h2V82.6z"/>
		</g>
	</g>
</g>
<g id="Laag_3" class="st0">
	<g class="st1">
		<g>
			<path class="st2" d="M34.9,56.9h4.6l9.8,22.9h-5.2L42,74.8h-9.6l-2.1,5.1h-5.1L34.9,56.9z M40.2,70.3l-3-7.4l-3,7.4H40.2z"/>
			<path class="st2" d="M65.5,77.7c-1.9,1.5-4,2.5-6.7,2.5c-4.4,0-7.6-2.5-7.6-6.6v-0.1c0-2.9,1.6-4.9,4.4-6.2
				c-1.1-1.6-1.6-3-1.6-4.6v-0.1c0-3.1,2.5-6,6.9-6c3.9,0,6.4,2.5,6.4,5.7v0.1c0,3.1-2,4.8-4.8,6l3,3c0.7-1.2,1.5-2.5,2.2-3.9l3.7,2
				c-0.9,1.6-1.9,3.3-3,4.8l3.3,3.3l-3.7,2.6L65.5,77.7z M62.7,74.8l-4.4-4.4c-1.5,0.8-2.1,1.9-2.1,3v0.1c0,1.6,1.3,2.7,3.2,2.7
				C60.5,76.1,61.6,75.6,62.7,74.8z M63,62.8L63,62.8c0-1.4-0.9-2.2-2.1-2.2c-1.3,0-2.2,0.9-2.2,2.3V63c0,1,0.4,1.8,1.3,2.8
				C61.9,65.1,63,64.2,63,62.8z"/>
			<path class="st2" d="M74.4,68.6L74.4,68.6c0-6.5,5-11.8,11.9-11.8c4.1,0,6.6,1.1,8.9,3.1l-3.2,3.8c-1.8-1.5-3.3-2.3-6-2.3
				c-3.6,0-6.5,3.2-6.5,7.1v0.1c0,4.2,2.9,7.2,6.9,7.2c1.8,0,3.4-0.5,4.7-1.4v-3.3h-5v-4.3h9.9v9.9c-2.3,2-5.6,3.6-9.7,3.6
				C79.3,80.3,74.4,75.3,74.4,68.6z"/>
		</g>
		<g>
			<path class="st2" d="M29.9,90h2.2l4.7,11h-2.5l-1-2.4h-4.6l-1,2.4h-2.4L29.9,90z M32.4,96.4L31,92.9l-1.4,3.5H32.4z"/>
			<path class="st2" d="M40.2,96.3v-6.2h2.4v6.2c0,1.8,0.9,2.7,2.3,2.7c1.5,0,2.3-0.9,2.3-2.6v-6.2h2.4v6.1c0,3.3-1.8,4.9-4.8,4.9
				C42,101.1,40.2,99.5,40.2,96.3z"/>
			<path class="st2" d="M57,92.3h-3.3v-2.2h9v2.2h-3.3v8.7H57V92.3z"/>
			<path class="st2" d="M65.9,95.6L65.9,95.6c0-3.1,2.4-5.7,5.8-5.7s5.8,2.5,5.8,5.6v0c0,3.1-2.4,5.6-5.8,5.6
				C68.4,101.2,65.9,98.6,65.9,95.6z M75,95.6L75,95.6c0-1.9-1.4-3.4-3.3-3.4c-1.9,0-3.3,1.5-3.3,3.4v0c0,1.9,1.4,3.4,3.3,3.4
				S75,97.4,75,95.6z"/>
			<path class="st2" d="M81.1,99.4l1.4-1.7c1,0.8,2,1.3,3.2,1.3c1,0,1.6-0.4,1.6-1v0c0-0.6-0.4-0.9-2.2-1.4
				c-2.2-0.6-3.6-1.2-3.6-3.3v0c0-2,1.6-3.3,3.8-3.3c1.6,0,2.9,0.5,4,1.4l-1.2,1.8c-1-0.7-1.9-1.1-2.8-1.1C84.4,92,84,92.5,84,93v0
				c0,0.7,0.5,0.9,2.3,1.4c2.2,0.6,3.4,1.4,3.4,3.3v0c0,2.2-1.6,3.4-4,3.4C84.1,101.1,82.4,100.5,81.1,99.4z"/>
			<path class="st2" d="M94.2,90.1h8.2v2.1h-5.8v2.2h5.1v2.1h-5.1v2.3h5.9v2.1h-8.3V90.1z"/>
			<path class="st2" d="M106.9,90.1h5c1.4,0,2.5,0.4,3.2,1.1c0.6,0.6,0.9,1.5,0.9,2.5v0c0,1.8-0.9,2.9-2.3,3.4l2.7,3.9h-2.8
				l-2.3-3.5h0h-1.8v3.5h-2.4V90.1z M111.7,95.4c1.2,0,1.8-0.6,1.8-1.5v0c0-1-0.7-1.6-1.9-1.6h-2.4v3.1H111.7z"/>
			<path class="st2" d="M119.2,90.1h2.6l2.8,7.7l2.8-7.7h2.6l-4.4,11h-2.1L119.2,90.1z"/>
			<path class="st2" d="M134.3,90.1h2.4V101h-2.4V90.1z"/>
			<path class="st2" d="M141.2,95.6L141.2,95.6c0-3.1,2.3-5.7,5.7-5.7c2.1,0,3.3,0.7,4.3,1.7l-1.5,1.8c-0.8-0.8-1.7-1.2-2.8-1.2
				c-1.8,0-3.2,1.5-3.2,3.4v0c0,1.9,1.3,3.4,3.2,3.4c1.2,0,2-0.5,2.9-1.3l1.5,1.5c-1.1,1.2-2.4,1.9-4.5,1.9
				C143.6,101.2,141.2,98.7,141.2,95.6z"/>
			<path class="st2" d="M155.5,90.1h8.2v2.1h-5.8v2.2h5.1v2.1h-5.1v2.3h5.9v2.1h-8.3V90.1z"/>
		</g>
		<path class="st2" d="M178.9,80.1c-0.6-1-0.9-2.1-0.9-3.2c0-1.1,0.4-2.2,0.8-3.3c0.2-0.5,0.3-1,0.4-1.6c0.1-0.5,0.1-1.1,0-1.6
			c-0.2-1-0.9-1.8-1.8-2.5c-0.8-0.7-1.7-1.3-2.7-1.8c-0.9-0.5-1.9-1-2.9-1.5c-2-0.9-4-1.8-6.1-2.6c-1-0.4-2.1-0.8-3.1-1.2
			c-1-0.4-2.1-0.7-3.1-1c-2.1-0.6-4.3-1-6.4-1.4c-4.3-0.8-8.7-1.3-13.1-1.7c-2.2-0.2-4.4-0.4-6.6-0.5l-1.6-0.1l-0.8,0
			c-0.3,0-0.5,0-0.9-0.1c-1.2-0.1-2.3-0.4-3.4-0.8c-1.1-0.4-2.2-0.9-3.2-1.4c-1-0.6-2-1.2-2.9-1.8c-1.9-1.2-3.7-2.5-5.4-3.8
			c-1.8-1.3-3.6-2.6-5.4-3.7c-1.8-1.1-3.8-2-5.8-2.7c-2-0.7-4.2-1.2-6.3-1.5c-2.1-0.3-4.4-0.5-6.5-0.5l0,0c-1.4,0-2.7,0-4.1,0.1
			c-1.4,0-2.7,0.2-4.1,0.2c-0.7,0.1-1.4,0.1-2,0.2c-0.7,0.1-1.4,0.1-2,0.2c-0.7,0.1-1.4,0.2-2,0.3l-2,0.3c-5.4,0.8-10.7,2-16,3.4
			c-5.3,1.4-10.5,3.1-15.6,4.9c-1.3,0.5-2.6,0.9-3.8,1.4c-1.3,0.5-2.5,1-3.8,1.5c-2.5,1-5,2.1-7.5,3.2c0,0-0.1,0-0.1,0
			c0,0,0-0.1,0-0.1c2.5-1.2,5-2.3,7.5-3.3c1.3-0.5,2.5-1,3.8-1.5c1.3-0.5,2.5-1,3.8-1.5c5.1-1.9,10.3-3.6,15.6-5.1
			c5.3-1.5,10.6-2.7,16-3.6l2-0.3c0.7-0.1,1.4-0.2,2-0.3c0.7-0.1,1.4-0.2,2-0.2c0.7-0.1,1.4-0.2,2-0.2c1.4-0.1,2.7-0.2,4.1-0.3
			c1.4-0.1,2.7-0.1,4.1-0.1l0,0c2.3-0.2,4.5-0.1,6.7,0.1c2.2,0.2,4.4,0.7,6.6,1.3c2.2,0.6,4.3,1.5,6.3,2.7c1.9,1.1,3.8,2.4,5.6,3.6
			c1.8,1.2,3.6,2.5,5.5,3.7c0.9,0.6,1.8,1.2,2.8,1.7c0.9,0.5,1.9,1,2.9,1.3c1,0.4,2,0.6,3,0.7c0.2,0,0.5,0.1,0.8,0.1l0.8,0.1
			l1.7,0.1c2.2,0.2,4.4,0.4,6.6,0.7c4.4,0.5,8.8,1.2,13.2,2.1c2.2,0.5,4.3,1,6.5,1.6c1.1,0.3,2.1,0.7,3.2,1.1c1,0.4,2.1,0.8,3.1,1.3
			c2,0.9,4.1,1.8,6,2.8c1,0.5,2,1,2.9,1.6c1,0.6,1.9,1.2,2.7,2c0.4,0.4,0.8,0.8,1.2,1.3c0.3,0.5,0.6,1,0.7,1.6
			c0.2,1.2-0.2,2.3-0.6,3.3c-0.4,1-0.8,2.1-0.9,3.1c-0.1,1.1,0.2,2.2,0.7,3.1c0,0,0,0.1,0,0.1C179,80.2,178.9,80.2,178.9,80.1
			L178.9,80.1z"/>
		<path class="st2" d="M160.7,80.1c0.1-1.1,0-2.1-0.1-3.2c-0.1-1.1-0.3-2.1-0.6-3.1c-0.5-2.1-1.4-4-2.7-5.7
			c-0.7-0.8-1.4-1.6-2.2-2.2c-0.8-0.6-1.8-1.1-2.7-1.5c-1-0.4-2-0.7-3-0.8c-1-0.2-2.1-0.2-3.1-0.3c-1.1,0-2.1,0.1-3.1,0.2
			c-1,0.2-2,0.5-3,0.9c-0.9,0.4-1.8,0.9-2.6,1.6c-0.8,0.6-1.5,1.4-2.1,2.2c-1.2,1.7-1.9,3.6-2.4,5.6c-0.2,1-0.4,2-0.5,3.1
			c-0.1,1-0.1,2.1-0.1,3.1l0,0.9l-0.9,0l-3.3,0l-3.3,0l-6.7-0.1l-6.7-0.2c-1.1,0-2.2-0.1-3.3-0.1c-1.1,0-2.2-0.1-3.3-0.1
			c0,0-0.1,0-0.1-0.1c0,0,0-0.1,0.1-0.1c1.1-0.1,2.2-0.2,3.3-0.2c1.1-0.1,2.2-0.1,3.3-0.2c1.1-0.1,2.2-0.1,3.3-0.2l3.3-0.1l3.3-0.1
			l3.3-0.1c2.2,0,4.4-0.1,6.7-0.1l-0.8,0.9c-0.1-1.2,0-2.2,0.1-3.4c0.1-1.1,0.3-2.2,0.6-3.3c0.6-2.1,1.4-4.2,2.8-6.1
			c0.7-0.9,1.5-1.7,2.4-2.4c0.9-0.7,1.9-1.3,2.9-1.7c1-0.4,2.1-0.7,3.2-0.9c1.1-0.2,2.2-0.2,3.3-0.2c1.1,0,2.2,0.1,3.3,0.4
			c1.1,0.2,2.1,0.5,3.2,1c1,0.4,2,1,2.8,1.7c0.9,0.7,1.6,1.5,2.3,2.4c1.3,1.8,2.1,3.8,2.6,5.9c0.2,1.1,0.4,2.1,0.5,3.2
			c0.1,1.1,0.1,2.2,0,3.2C160.9,80.1,160.8,80.2,160.7,80.1C160.7,80.2,160.7,80.1,160.7,80.1L160.7,80.1z"/>
		<path class="st2" d="M152.7,69.1c0,0,0.1,0.1,0.3,0.2c0.1,0.1,0.2,0.2,0.3,0.3c0.1,0.1,0.3,0.3,0.4,0.5c0.2,0.2,0.3,0.4,0.5,0.6
			c0.1,0.1,0.2,0.2,0.3,0.4c0.1,0.1,0.2,0.3,0.2,0.4c0.3,0.6,0.6,1.2,0.8,2c0.1,0.4,0.2,0.8,0.2,1.2c0,0.1,0,0.2,0,0.3
			c0,0.1,0,0.1,0,0.2l0,0.2c0,0.2,0,0.4,0,0.7c-0.1,1-0.3,1.9-0.7,2.9c-0.4,0.9-1,1.8-1.8,2.6c-0.8,0.8-1.7,1.4-2.7,1.9
			c-1,0.5-2.1,0.9-3.1,1l-0.4,0.1l-0.4,0l-0.4,0l-0.2,0l-0.2,0c-0.3,0-0.5,0-0.8,0c-0.3,0-0.6-0.1-0.8-0.1c-1-0.2-2-0.5-2.9-1
			c-0.2-0.1-0.4-0.2-0.6-0.4c-0.2-0.1-0.4-0.2-0.6-0.4c-0.2-0.1-0.4-0.3-0.5-0.4c-0.2-0.1-0.3-0.3-0.5-0.4c-0.3-0.3-0.6-0.6-0.8-0.9
			c-0.2-0.3-0.4-0.6-0.6-0.9c-0.2-0.3-0.3-0.6-0.4-0.8c-0.1-0.3-0.2-0.5-0.3-0.7c-0.1-0.5-0.2-0.8-0.2-1.1c0-0.2,0-0.4,0-0.4
			c0-0.1,0-0.1,0.1-0.1c0,0,0.1,0,0.1,0l0,0c0,0,0.1,0.1,0.2,0.3c0.1,0.1,0.1,0.2,0.2,0.4c0.1,0.1,0.2,0.3,0.3,0.5
			c0.1,0.2,0.3,0.4,0.4,0.6c0.2,0.2,0.3,0.4,0.5,0.6c0.4,0.4,0.9,0.9,1.5,1.3c0.1,0.1,0.3,0.2,0.5,0.3c0.2,0.1,0.3,0.2,0.5,0.3
			c0.2,0.1,0.3,0.2,0.5,0.3c0.2,0.1,0.4,0.2,0.5,0.2c0.7,0.3,1.6,0.5,2.4,0.7c0.2,0,0.4,0.1,0.6,0.1c0.2,0,0.5,0,0.7,0.1l0.1,0l0,0
			l0,0l0,0c0,0,0,0,0,0l0.2,0l0.3,0l0.3,0l0.3,0c0.9-0.1,1.9-0.3,2.7-0.7c1.7-0.8,3.3-2.1,4.1-3.7c0.4-0.8,0.7-1.6,0.8-2.4
			c0-0.2,0-0.4,0.1-0.7l0-0.2l0-0.1c0-0.1,0-0.2,0-0.3c0-0.4-0.1-0.8-0.1-1.1c-0.1-0.7-0.3-1.4-0.6-1.9c-0.1-0.1-0.1-0.3-0.2-0.4
			c-0.1-0.1-0.1-0.2-0.2-0.4c-0.1-0.2-0.3-0.4-0.4-0.6c-0.1-0.2-0.2-0.3-0.4-0.5c-0.1-0.1-0.2-0.2-0.3-0.3c-0.2-0.2-0.2-0.3-0.2-0.3
			c0,0,0-0.1,0-0.1C152.6,69.1,152.6,69.1,152.7,69.1z"/>
	</g>
</g>
<g id="Laag_4" class="st0">
	<g class="st1">
		<g>
			<path class="st2" d="M13.9,55.1h10.9v3.4H18v3.7h5.8v3.4H18v6.6h-4.1V55.1z"/>
			<path class="st2" d="M26.2,65.7c0-4.3,3.1-6.8,6.4-6.8c3.3,0,6.4,2.5,6.4,6.8s-3.1,6.9-6.4,6.9C29.3,72.6,26.2,70.1,26.2,65.7z
				 M34.9,65.7c0-2.2-0.7-3.6-2.2-3.6c-1.5,0-2.2,1.4-2.2,3.6c0,2.2,0.7,3.6,2.2,3.6C34.2,69.3,34.9,67.9,34.9,65.7z"/>
			<path class="st2" d="M41.6,59.2h3.3l0.3,2.3h0.1c0.9-1.8,2.4-2.6,3.7-2.6c0.8,0,1.2,0.1,1.6,0.3l-0.8,3.4
				c-0.5-0.1-0.8-0.2-1.3-0.2c-1,0-2.2,0.6-2.8,2.4v7.5h-4.1V59.2z"/>
			<path class="st2" d="M52.8,67.4v-5.1h-1.8v-3.1l2-0.1l0.5-4h3.4v4H60v3.2h-3.1v5c0,1.5,0.7,2,1.7,2c0.4,0,0.9-0.1,1.2-0.2
				l0.6,2.8c-0.7,0.3-1.7,0.5-3,0.5C54.2,72.6,52.8,70.5,52.8,67.4z"/>
			<path class="st2" d="M62.4,67.3v-8.1h4.1v7.6c0,1.8,0.5,2.3,1.5,2.3c0.9,0,1.5-0.4,2.2-1.3v-8.6h4.1v13.1h-3.3l-0.3-1.8h-0.1
				c-1.1,1.3-2.3,2.1-4.1,2.1C63.6,72.6,62.4,70.6,62.4,67.3z"/>
			<path class="st2" d="M77.5,59.2h3.3l0.3,1.6h0.1c1.1-1.1,2.4-1.9,4.2-1.9c2.8,0,4.1,2,4.1,5.3v8.1h-4.1v-7.6
				c0-1.8-0.5-2.4-1.5-2.4c-0.9,0-1.5,0.4-2.3,1.2v8.8h-4.1V59.2z"/>
			<path class="st2" d="M97.1,72.6c-1.6,0-3.3-0.5-4.7-1.5l1.3-2.4c0.9,0.5,1.9,0.8,2.8,0.8c1.7,0,2.9-0.8,3.3-2.5h-7.7
				c-0.1-0.4-0.2-1.1-0.2-1.8c0-3.6,1.8-6.3,5.6-6.3c3.1,0,6.2,2.6,6.2,6.8C103.8,70.1,100.9,72.6,97.1,72.6z M99.9,64.2
				c-0.3-1.5-1.2-2.3-2.4-2.3c-1.5,0-2.1,1-2.1,2.3H99.9z"/>
		</g>
		<g>
			<g>
				<path class="st2" d="M106.7,59.3h7.5v1.4h-5.8v4.4h4.9v1.4h-4.9v5.8h-1.7V59.3z"/>
				<path class="st2" d="M120.3,59.3h1.9l4.4,12.9h-1.8l-1.2-3.9h-4.7l-1.2,3.9H116L120.3,59.3z M119.3,67h3.9l-0.6-2
					c-0.5-1.4-0.9-2.9-1.3-4.4h-0.1c-0.4,1.5-0.8,2.9-1.3,4.4L119.3,67z"/>
				<path class="st2" d="M129.4,65.8c0-4.2,2.4-6.7,5.7-6.7c1.6,0,2.8,0.7,3.6,1.6l-0.9,1c-0.7-0.7-1.5-1.2-2.6-1.2
					c-2.4,0-4,2-4,5.2c0,3.3,1.5,5.3,4,5.3c1.2,0,2.2-0.5,3-1.4l0.9,1c-1,1.2-2.3,1.9-4,1.9C131.8,72.5,129.4,70,129.4,65.8z"/>
				<path class="st2" d="M145.8,60.7h-3.9v-1.4h9.5v1.4h-3.9v11.5h-1.7V60.7z"/>
				<path class="st2" d="M154.4,65.7c0-4.1,2.3-6.7,5.5-6.7c3.3,0,5.5,2.5,5.5,6.7c0,4.2-2.3,6.8-5.5,6.8
					C156.7,72.5,154.4,69.9,154.4,65.7z M163.7,65.7c0-3.2-1.5-5.2-3.8-5.2c-2.3,0-3.8,2-3.8,5.2c0,3.2,1.5,5.3,3.8,5.3
					C162.2,71.1,163.7,69,163.7,65.7z"/>
				<path class="st2" d="M170.2,59.3h4c2.6,0,4.5,0.9,4.5,3.7c0,2-1.1,3.2-2.9,3.7l3.3,5.6h-1.9l-3.1-5.5h-2.3v5.5h-1.7V59.3z
					 M174,65.5c2,0,3.1-0.8,3.1-2.5c0-1.7-1.1-2.3-3.1-2.3h-2.2v4.8H174z"/>
				<path class="st2" d="M185.5,67.3l-3.9-7.9h1.8l1.7,3.7c0.4,0.9,0.8,1.9,1.3,2.8h0.1c0.4-1,0.9-1.9,1.3-2.8l1.7-3.7h1.7l-3.9,7.9
					v5h-1.7V67.3z"/>
			</g>
		</g>
		<g>
			<g>
				<path class="st2" d="M82.6,83.7c0-0.4,0.2-0.7,0.7-1v0c-0.2-0.1-0.4-0.4-0.4-0.8c0-0.3,0.2-0.7,0.5-0.8v0
					c-0.3-0.2-0.6-0.7-0.6-1.2c0-1,0.8-1.6,1.8-1.6c0.2,0,0.5,0,0.7,0.1h1.6v0.8H86c0.1,0.2,0.2,0.4,0.2,0.7c0,1-0.8,1.5-1.7,1.5
					c-0.2,0-0.4,0-0.6-0.1c-0.1,0.1-0.2,0.2-0.2,0.4c0,0.2,0.2,0.4,0.7,0.4h0.8c1.1,0,1.7,0.3,1.7,1.1c0,0.9-0.9,1.6-2.4,1.6
					C83.4,84.9,82.6,84.5,82.6,83.7z M85.8,83.4c0-0.3-0.3-0.4-0.8-0.4h-0.6c-0.2,0-0.4,0-0.6-0.1c-0.2,0.2-0.3,0.4-0.3,0.6
					c0,0.4,0.4,0.6,1.1,0.6C85.4,84.1,85.8,83.8,85.8,83.4z M85.3,79.8c0-0.6-0.3-0.9-0.8-0.9s-0.8,0.3-0.8,0.9
					c0,0.6,0.3,0.9,0.8,0.9S85.3,80.4,85.3,79.8z"/>
				<path class="st2" d="M87.2,80.6c0-1.5,1-2.4,2.1-2.4c1.2,0,1.9,0.9,1.9,2.2c0,0.2,0,0.4-0.1,0.6h-2.9c0.1,0.8,0.6,1.2,1.3,1.2
					c0.4,0,0.7-0.1,1-0.3l0.4,0.7c-0.4,0.3-1,0.5-1.6,0.5C88.2,83,87.2,82.1,87.2,80.6z M90.3,80.1c0-0.7-0.3-1.1-0.9-1.1
					c-0.5,0-1,0.4-1,1.1H90.3z"/>
				<path class="st2" d="M92.2,81.7v-5.3h1.1v5.4c0,0.3,0.1,0.4,0.2,0.4c0.1,0,0.1,0,0.2,0l0.1,0.8c-0.1,0.1-0.3,0.1-0.6,0.1
					C92.5,83,92.2,82.5,92.2,81.7z"/>
				<path class="st2" d="M94.7,81.2v-2.8h1.1V81c0,0.7,0.2,1,0.7,1c0.4,0,0.7-0.2,1-0.6v-3.1h1.1v4.5h-0.9l-0.1-0.7h0
					c-0.4,0.5-0.8,0.8-1.5,0.8C95.1,83,94.7,82.3,94.7,81.2z"/>
				<path class="st2" d="M99.9,76.4h1.1v4h0l1.6-2h1.2l-1.5,1.9l1.7,2.7h-1.2l-1.2-1.9l-0.7,0.8v1.2h-1.1V76.4z"/>
				<path class="st2" d="M106.7,78.3h0.7l0.9,2.4c0.1,0.3,0.2,0.6,0.3,0.9h0c0.1-0.3,0.2-0.6,0.3-0.9l0.9-2.4h0.7v4.5h-0.5v-2.5
					c0-0.4,0-1,0.1-1.4h0l-0.4,1.1l-0.8,2.3h-0.4l-0.8-2.3l-0.4-1.1h0c0,0.4,0.1,1,0.1,1.4v2.5h-0.5V78.3z"/>
				<path class="st2" d="M112.4,78.3h2.6v0.5h-2v1.4h1.7v0.5H113v1.6h2.1v0.5h-2.7V78.3z"/>
				<path class="st2" d="M117.6,78.8h-1.4v-0.5h3.3v0.5h-1.4v4h-0.6V78.8z"/>
				<path class="st2" d="M123.2,78.3h2.6v0.5h-2v1.4h1.7v0.5h-1.7v1.6h2.1v0.5h-2.7V78.3z"/>
				<path class="st2" d="M127.5,78.3h2.6v0.5h-2v1.4h1.7v0.5h-1.7v1.6h2.1v0.5h-2.7V78.3z"/>
				<path class="st2" d="M131.8,78.3h0.6l1.6,2.8c0.2,0.3,0.3,0.6,0.5,1h0c0-0.5-0.1-1-0.1-1.4v-2.4h0.5v4.5h-0.6l-1.6-2.8
					c-0.2-0.3-0.3-0.6-0.5-1h0c0,0.5,0.1,0.9,0.1,1.4v2.4h-0.5V78.3z"/>
				<path class="st2" d="M138.8,80.6c0-1.5,0.9-2.3,2.1-2.3c0.6,0,1,0.3,1.3,0.6l-0.3,0.4c-0.2-0.2-0.5-0.4-1-0.4
					c-0.9,0-1.5,0.7-1.5,1.8c0,1.1,0.5,1.8,1.5,1.8c0.3,0,0.6-0.1,0.8-0.3V81h-1v-0.5h1.5v1.9c-0.3,0.3-0.8,0.5-1.4,0.5
					C139.6,82.9,138.8,82.1,138.8,80.6z"/>
				<path class="st2" d="M144,78.3h0.6v4h2v0.5H144V78.3z"/>
				<path class="st2" d="M148,78.3h0.6v4.5H148V78.3z"/>
				<path class="st2" d="M150.5,78.3h0.7l0.9,2.4c0.1,0.3,0.2,0.6,0.3,0.9h0c0.1-0.3,0.2-0.6,0.3-0.9l0.9-2.4h0.7v4.5h-0.5v-2.5
					c0-0.4,0-1,0.1-1.4h0l-0.4,1.1l-0.8,2.3h-0.4l-0.8-2.3L151,79h0c0,0.4,0.1,1,0.1,1.4v2.5h-0.5V78.3z"/>
				<path class="st2" d="M156.3,78.3h0.6v4h2v0.5h-2.6V78.3z"/>
				<path class="st2" d="M161.3,78.3h0.7l1.5,4.5h-0.6l-0.4-1.4h-1.6l-0.4,1.4h-0.6L161.3,78.3z M160.9,81h1.4l-0.2-0.7
					c-0.2-0.5-0.3-1-0.5-1.5h0c-0.1,0.5-0.3,1-0.4,1.5L160.9,81z"/>
				<path class="st2" d="M164.4,80.6c0-1.5,0.9-2.3,2-2.3c0.6,0,1,0.3,1.2,0.6l-0.3,0.4c-0.2-0.2-0.5-0.4-0.9-0.4
					c-0.8,0-1.4,0.7-1.4,1.8c0,1.1,0.5,1.8,1.4,1.8c0.4,0,0.8-0.2,1-0.5l0.3,0.3c-0.4,0.4-0.8,0.7-1.4,0.7
					C165.3,82.9,164.4,82.1,164.4,80.6z"/>
				<path class="st2" d="M169.3,78.3h0.6v1.9h2.1v-1.9h0.6v4.5H172v-2.1h-2.1v2.1h-0.6V78.3z"/>
			</g>
		</g>
	</g>
</g>
<g id="Laag_5" class="st0">
	<g class="st1">
		<path class="st2" d="M76,52.6L76,52.6c0-2.5,2-4.5,4.7-4.5c2.7,0,4.7,2,4.7,4.5v0c0,2.5-2,4.5-4.7,4.5C78,57.1,76,55.1,76,52.6z
			 M83.4,52.6L83.4,52.6c0-1.5-1.1-2.8-2.7-2.8c-1.6,0-2.7,1.2-2.7,2.7v0c0,1.5,1.1,2.7,2.7,2.7C82.3,55.3,83.4,54.1,83.4,52.6z"/>
		<path class="st2" d="M82.4,42.6L82.4,42.6c0-3.4,2.7-6.2,6.4-6.2c3.7,0,6.3,2.7,6.3,6.1v0c0,3.4-2.7,6.1-6.4,6.1
			C85,48.6,82.4,45.9,82.4,42.6z M92.4,42.6L92.4,42.6c0-2.1-1.5-3.7-3.6-3.7c-2.1,0-3.6,1.7-3.6,3.7v0c0,2,1.5,3.7,3.6,3.7
			C90.9,46.2,92.4,44.6,92.4,42.6z"/>
		<path class="st2" d="M88.1,55.1L88.1,55.1c0-1.5,1.2-2.7,2.8-2.7c1.6,0,2.7,1.2,2.7,2.6v0c0,1.5-1.2,2.6-2.8,2.6
			C89.2,57.8,88.1,56.6,88.1,55.1z M92.4,55.1L92.4,55.1c0-0.9-0.6-1.6-1.6-1.6s-1.6,0.7-1.6,1.6v0c0,0.9,0.6,1.6,1.6,1.6
			C91.7,56.7,92.4,56,92.4,55.1z"/>
		<path class="st2" d="M70.6,73.6L70.6,73.6c0-8,6.3-14.4,15-14.4s14.9,6.4,14.9,14.3v0.1c0,7.9-6.3,14.4-15,14.4
			C76.8,87.9,70.6,81.5,70.6,73.6z M94,73.6L94,73.6c0-4.8-3.5-8.8-8.5-8.8c-5,0-8.4,3.9-8.4,8.7v0.1c0,4.8,3.5,8.7,8.5,8.7
			C90.6,82.3,94,78.4,94,73.6z"/>
		<path class="st2" d="M107.3,96.3c-0.1-0.7-0.3-1.2-0.7-1.6c-0.4-0.4-0.8-0.6-1.3-0.6c-0.6,0-1,0.2-1.4,0.7c-0.3,0.5-0.5,1-0.5,1.5
			H107.3z M108.3,99.1c-0.4,0.6-0.9,1.1-1.4,1.4c-0.5,0.3-1,0.4-1.5,0.4c-0.8,0-1.5-0.3-2.1-1c-0.6-0.7-0.9-1.6-0.9-2.9
			c0-1.2,0.3-2.1,0.9-2.8c0.6-0.7,1.3-1,2-1c0.5,0,1,0.2,1.5,0.5c0.5,0.3,0.8,0.8,1.1,1.3c0.2,0.6,0.4,1.3,0.4,2.1h-4.9
			c0,0.6,0.1,1.1,0.3,1.4c0.2,0.5,0.5,0.9,0.8,1.1c0.3,0.2,0.6,0.3,0.9,0.3c0.8,0,1.5-0.5,2.1-1.5L108.3,99.1z"/>
		<path class="st2" d="M108.4,93.4h1l1.9,5.9l1.9-5.9h1l-2.4,7.4h-1L108.4,93.4z"/>
		<path class="st2" d="M119,96.3c-0.1-0.7-0.3-1.2-0.7-1.6c-0.4-0.4-0.8-0.6-1.3-0.6c-0.6,0-1,0.2-1.4,0.7c-0.3,0.5-0.5,1-0.5,1.5
			H119z M120,99.1c-0.4,0.6-0.9,1.1-1.4,1.4c-0.5,0.3-1,0.4-1.5,0.4c-0.8,0-1.5-0.3-2.1-1c-0.6-0.7-0.9-1.6-0.9-2.9
			c0-1.2,0.3-2.1,0.9-2.8c0.6-0.7,1.3-1,2-1c0.5,0,1,0.2,1.5,0.5c0.5,0.3,0.8,0.8,1.1,1.3c0.2,0.6,0.4,1.3,0.4,2.1h-4.9
			c0,0.6,0.1,1.1,0.3,1.4c0.2,0.5,0.5,0.9,0.8,1.1c0.3,0.2,0.6,0.3,0.9,0.3c0.8,0,1.5-0.5,2.1-1.5L120,99.1z"/>
		<path class="st2" d="M122.1,94.3c0.5-0.3,1-0.6,1.5-0.7c0.5-0.2,0.9-0.3,1.2-0.3c0.3,0,0.6,0.1,0.9,0.2c0.3,0.2,0.5,0.4,0.7,0.8
			c0.2,0.4,0.3,0.8,0.3,1.4v5.2h-0.9v-5.1c0-0.5-0.1-0.9-0.3-1.1c-0.2-0.2-0.5-0.4-0.9-0.4c-0.3,0-0.7,0.1-1.1,0.2
			c-0.4,0.2-0.9,0.4-1.4,0.7v5.7h-0.9v-7.4h0.9L122.1,94.3L122.1,94.3z"/>
		<path class="st2" d="M128.8,90.7h0.9v2.7h1.7v0.9h-1.7v4.6c0,0.4,0.1,0.7,0.3,0.9c0.2,0.2,0.4,0.3,0.8,0.3c0.2,0,0.4,0,0.7-0.1
			v0.9c-0.3,0-0.6,0.1-0.8,0.1c-0.7,0-1.1-0.1-1.4-0.4c-0.3-0.3-0.4-0.8-0.4-1.4v-4.8h-1.2v-0.9h1.2L128.8,90.7L128.8,90.7z"/>
		<path class="st2" d="M136.1,96.5c-0.3-0.4-0.5-0.8-0.5-1.3c0-0.5,0.2-1,0.6-1.4c0.4-0.4,1-0.6,1.7-0.6c0.5,0,1,0.1,1.4,0.3
			c0.4,0.2,0.8,0.5,1.1,0.8l-0.7,0.6c-0.3-0.3-0.5-0.6-0.8-0.7c-0.3-0.2-0.6-0.2-1-0.2c-0.5,0-0.8,0.1-1.1,0.3
			c-0.2,0.2-0.4,0.5-0.4,0.8c0,0.2,0.1,0.5,0.3,0.7c0.2,0.2,0.6,0.4,1.3,0.6c1,0.3,1.8,0.6,2.1,1.1c0.4,0.4,0.5,0.9,0.5,1.4
			c0,0.6-0.2,1.1-0.7,1.5c-0.4,0.4-1,0.6-1.8,0.6c-0.5,0-1.1-0.1-1.5-0.3c-0.5-0.2-1-0.6-1.5-1.1l0.8-0.6c0.4,0.4,0.8,0.7,1.1,0.9
			c0.3,0.2,0.7,0.3,1.1,0.3c0.5,0,0.9-0.1,1.1-0.4c0.3-0.2,0.4-0.5,0.4-0.9c0-0.3-0.1-0.5-0.3-0.7c-0.3-0.3-0.8-0.5-1.7-0.8
			c-0.5-0.1-1-0.3-1.3-0.5C136.4,96.8,136.2,96.7,136.1,96.5z"/>
		<path class="st2" d="M142.8,93.4v4.8c0,0.5,0.1,1,0.4,1.3c0.2,0.3,0.5,0.5,0.9,0.5c0.3,0,0.6-0.1,1-0.3c0.4-0.2,0.8-0.5,1.4-1
			v-5.3h0.9v7.4h-0.9v-1.2c-0.5,0.4-1,0.8-1.4,1c-0.4,0.2-0.8,0.3-1.2,0.3c-0.3,0-0.6-0.1-0.9-0.2c-0.3-0.2-0.5-0.4-0.7-0.8
			c-0.2-0.4-0.3-0.9-0.3-1.5v-5H142.8z"/>
		<path class="st2" d="M150.2,98.9c0.4,0.4,0.8,0.6,1.2,0.8c0.4,0.2,0.8,0.3,1.1,0.3c0.5,0,1-0.3,1.4-0.8c0.4-0.5,0.6-1.2,0.6-2.2
			c0-1-0.2-1.7-0.6-2.2c-0.4-0.5-0.9-0.7-1.5-0.7c-0.3,0-0.7,0.1-1.1,0.3c-0.4,0.2-0.8,0.5-1.2,0.8L150.2,98.9L150.2,98.9z
			 M150.2,94.3c0.4-0.4,0.8-0.6,1.2-0.8c0.4-0.2,0.8-0.3,1.2-0.3c0.5,0,1,0.2,1.5,0.5c0.5,0.3,0.8,0.8,1.1,1.4
			c0.2,0.6,0.4,1.3,0.4,2c0,0.8-0.1,1.4-0.4,2c-0.3,0.6-0.6,1-1.1,1.3c-0.5,0.3-0.9,0.4-1.4,0.4c-0.4,0-0.8-0.1-1.2-0.3
			c-0.4-0.2-0.8-0.5-1.2-0.8v3.8h-0.9V93.4h0.9V94.3z"/>
		<path class="st2" d="M157.6,98.9c0.4,0.4,0.8,0.6,1.2,0.8c0.4,0.2,0.8,0.3,1.1,0.3c0.5,0,1-0.3,1.4-0.8c0.4-0.5,0.6-1.2,0.6-2.2
			c0-1-0.2-1.7-0.6-2.2c-0.4-0.5-0.9-0.7-1.5-0.7c-0.3,0-0.7,0.1-1.1,0.3c-0.4,0.2-0.8,0.5-1.2,0.8L157.6,98.9L157.6,98.9z
			 M157.6,94.3c0.4-0.4,0.8-0.6,1.2-0.8c0.4-0.2,0.8-0.3,1.2-0.3c0.5,0,1,0.2,1.5,0.5c0.5,0.3,0.8,0.8,1.1,1.4
			c0.2,0.6,0.4,1.3,0.4,2c0,0.8-0.1,1.4-0.4,2c-0.3,0.6-0.6,1-1.1,1.3c-0.5,0.3-0.9,0.4-1.4,0.4c-0.4,0-0.8-0.1-1.2-0.3
			c-0.4-0.2-0.8-0.5-1.2-0.8v3.8h-0.9V93.4h0.9V94.3z"/>
		<path class="st2" d="M165.2,90.4h-0.9v10.4h0.9V90.4z"/>
		<path class="st2" d="M167.3,93.4h0.9v7.4h-0.9V93.4z M167.3,90.5h0.9v1.2h-0.9V90.5z"/>
		<path class="st2" d="M174.5,96.3c-0.1-0.7-0.3-1.2-0.7-1.6c-0.4-0.4-0.8-0.6-1.3-0.6c-0.6,0-1,0.2-1.4,0.7c-0.3,0.5-0.5,1-0.5,1.5
			H174.5z M175.5,99.1c-0.4,0.6-0.9,1.1-1.4,1.4c-0.5,0.3-1,0.4-1.5,0.4c-0.8,0-1.5-0.3-2.1-1c-0.6-0.7-0.9-1.6-0.9-2.9
			c0-1.2,0.3-2.1,0.9-2.8c0.6-0.7,1.2-1,2-1c0.5,0,1,0.2,1.5,0.5c0.5,0.3,0.8,0.8,1.1,1.3c0.2,0.6,0.4,1.3,0.4,2.1h-4.9
			c0,0.6,0.1,1.1,0.2,1.4c0.2,0.5,0.5,0.9,0.8,1.1c0.3,0.2,0.6,0.3,0.9,0.3c0.8,0,1.5-0.5,2.1-1.5L175.5,99.1z"/>
		<path class="st2" d="M176.8,96.5c-0.3-0.4-0.5-0.8-0.5-1.3c0-0.5,0.2-1,0.6-1.4c0.4-0.4,1-0.6,1.7-0.6c0.5,0,1,0.1,1.4,0.3
			c0.4,0.2,0.8,0.5,1.1,0.8l-0.7,0.6c-0.3-0.3-0.5-0.6-0.8-0.7c-0.3-0.2-0.6-0.2-1-0.2c-0.5,0-0.8,0.1-1.1,0.3
			c-0.2,0.2-0.4,0.5-0.4,0.8c0,0.2,0.1,0.5,0.3,0.7c0.2,0.2,0.6,0.4,1.3,0.6c1,0.3,1.8,0.6,2.1,1.1c0.4,0.4,0.6,0.9,0.6,1.4
			c0,0.6-0.2,1.1-0.7,1.5c-0.4,0.4-1,0.6-1.8,0.6c-0.6,0-1.1-0.1-1.5-0.3c-0.5-0.2-1-0.6-1.5-1.1l0.8-0.6c0.4,0.4,0.7,0.7,1.1,0.9
			c0.3,0.2,0.7,0.3,1.1,0.3c0.5,0,0.9-0.1,1.1-0.4c0.3-0.2,0.4-0.5,0.4-0.9c0-0.3-0.1-0.5-0.3-0.7c-0.3-0.3-0.8-0.5-1.7-0.8
			c-0.5-0.1-1-0.3-1.3-0.5C177.1,96.8,176.9,96.7,176.8,96.5z"/>
		<path class="st2" d="M134.8,71.5h-2.4l3.7-5.9h-3.1v-5.9h5.5v5.9L134.8,71.5z"/>
		<path class="st2" d="M142.1,59.6h16.4v2.6h-13.7v9H155v2.6h-10.2v10.6h15v2.6h-17.7V59.6z"/>
		<path class="st2" d="M164.7,79.4c0.3,1.1,0.6,1.9,1,2.5c0.6,1,1.5,1.8,2.5,2.3c1,0.6,2.3,0.9,3.8,0.9c2.1,0,3.7-0.5,4.9-1.6
			c1.2-1,1.8-2.3,1.8-3.7c0-1.3-0.5-2.4-1.6-3.3c-0.8-0.7-2.5-1.4-5-2.1c-3.4-1-5.8-2.1-7.2-3.3c-1.4-1.2-2.1-2.8-2.1-4.6
			c0-2,0.8-3.8,2.4-5.2c1.6-1.5,3.7-2.2,6.3-2.2c1.6,0,3.1,0.3,4.5,0.9c1.4,0.6,2.6,1.4,3.5,2.6c0.6,0.8,1.2,1.8,1.5,3.1l-2.8,0.9
			c-0.5-1.6-1.3-2.9-2.5-3.8c-1.2-0.9-2.6-1.3-4.2-1.3c-1.7,0-3.1,0.5-4.2,1.4c-1.1,0.9-1.6,2-1.6,3.3c0,1,0.4,2,1.3,2.8
			c0.8,0.8,2.7,1.7,5.6,2.5c3.4,1,5.8,2.1,7.1,3.4c1.3,1.3,1.9,2.9,1.9,4.8c0,2.2-0.9,4.1-2.6,5.6c-1.8,1.6-4.1,2.3-7,2.3
			c-1.8,0-3.5-0.4-5-1.1c-1.5-0.7-2.7-1.7-3.7-2.9c-0.6-0.8-1.2-2-1.6-3.5L164.7,79.4z"/>
		<path class="st2" d="M28.9,64.4V72h4.5c1.7,0,3.1-0.5,4.2-1.4c0.7-0.6,1.1-1.5,1.1-2.6c0-1.1-0.4-1.9-1.2-2.6c-0.8-0.7-2.1-1-4-1
			H28.9z M23.4,59.6h8.9c3.2,0,5.5,0.3,7.1,0.8c1.6,0.5,2.8,1.4,3.8,2.7c1,1.3,1.4,2.8,1.4,4.6c0,1.4-0.3,2.7-0.8,3.9
			c-0.4,0.9-1.1,1.7-2,2.4c-0.9,0.7-1.8,1.2-2.6,1.6c-1.5,0.6-3.3,0.9-5.3,0.9h-4.9v10.9h-5.6V59.6z"/>
		<path class="st2" d="M53.4,71.9h4.4c1.6,0,3-0.5,4.1-1.4c0.7-0.6,1.1-1.4,1.1-2.5c0-1-0.4-1.9-1.3-2.6s-2.2-1-4-1h-4.4V71.9z
			 M47.9,59.6h7.6c4.1,0,6.9,0.3,8.5,0.9c1.6,0.6,2.8,1.6,3.6,3c0.9,1.4,1.3,3,1.3,4.8c0,1.7-0.4,3-1.2,4.1c-0.8,1.1-2.1,2-4.1,2.8
			l5.1,12.2h-5.5l-4.7-11.2h-5.1v11.2h-5.5V59.6z"/>
		<path class="st2" d="M102.7,59.6h8.8l4.7,17.2l4.7-17.2h8.8v27.8h-5.3V62.7l-6.8,24.7h-2.9l-6.8-24.7v24.7h-5.2V59.6z"/>
	</g>
</g>
<g id="Laag_6" class="st0">
	<g class="st1">
		<path class="st2" d="M80.6,54.7H65.1v7.8H72v8.1h-5.4c-4.5,0.2-8.6-3.9-8.6-11.1c0-8.4,1.9-12.3,9.2-12.3h13.2v-8.9H63.8
			c-9.7,0-16.4,7.1-16.4,21.6c0,16.4,11.8,18.7,17.9,18.7h15.4V54.7z"/>
		<path class="st2" d="M130,90.1h-2.6v-6.6h-3v18.1h3v-8.3h1.9c0.5,0,0.5,0.1,0.5,0.7v7.5h3v-9C132.8,90.8,132.1,90.1,130,90.1"/>
		<polygon class="st2" points="122.3,90.2 114.1,90.2 114.1,93 118.5,93 114.1,99 114.1,101.6 122.3,101.6 122.3,98.7 118,98.7 
			122.3,92.7 		"/>
		<polygon class="st2" points="143.2,90.2 135,90.2 135,93 139.4,93 135,99 135,101.6 143.2,101.6 143.2,98.7 138.9,98.7 
			143.2,92.7 		"/>
		<path class="st2" d="M118,54.7h-15.5v7.8h6.9v8.1H104c-4.5,0.2-8.6-3.9-8.6-11.1c0-8.4,1.9-12.3,9.2-12.3h13.2v-8.9h-16.7
			c-9.7,0-16.4,7.1-16.4,21.6c0,16.4,11.8,18.7,17.9,18.7H118V54.7z"/>
		<path class="st2" d="M141.3,39l-16.9,0V63l9.5,0V47.8h3.8c7.3,0,9.3,3.8,9.3,12.3c0,7.2-4.2,10.3-8.7,10.3l-14,0l0,8.8h15.5
			c6.1,0,17.8-2.2,17.8-18.7C157.7,46.1,151,39,141.3,39"/>
	</g>
</g>
</svg>
