<?xml version="1.0" encoding="utf-8"?>
<!-- Generator: Adobe Illustrator 28.0.0, SVG Export Plug-In . SVG Version: 6.00 Build 0)  -->
<svg version="1.1" id="Laag_1" xmlns="http://www.w3.org/2000/svg" xmlns:xlink="http://www.w3.org/1999/xlink" x="0px" y="0px"
	 viewBox="0 0 46 46" style="enable-background:new 0 0 46 46;" xml:space="preserve">
<style type="text/css">
	.st0{fill:#FFFFFF;}
</style>
<g>
	<path class="st0" d="M24.8,24.6c4-3.4,8-6.8,12-10.2c0.1-0.1,0.2-0.1,0.1-0.2c-8.5,0-17,0-25.6,0c0.2,0.2,0.3,0.3,0.4,0.4
		c2.1,1.8,4.2,3.6,6.2,5.3c1.8,1.5,3.6,3.1,5.4,4.6C24,24.9,24.4,25,24.8,24.6z"/>
	<path class="st0" d="M36.8,31.7c-2.9-2.4-5.7-4.9-8.6-7.3c-0.2-0.2-0.4-0.2-0.6,0c-0.6,0.5-1.2,1-1.8,1.5c-1.1,1-2.4,0.9-3.5,0
		c-0.6-0.5-1.2-1-1.7-1.5c-0.2-0.2-0.4-0.2-0.6,0c-2.7,2.4-5.5,4.7-8.2,7c-0.2,0.1-0.3,0.3-0.5,0.5c8.6,0,17.1,0,25.6,0
		C36.9,31.8,36.9,31.8,36.8,31.7z"/>
	<path class="st0" d="M23,0C10.3,0,0,10.3,0,23s10.3,23,23,23s23-10.3,23-23S35.7,0,23,0z M6.7,20.1c0.8,0,1.6,0,2.4,0
		c0.8,0,1.6,0,2.4,0c0.6,0,1,0.3,1,0.8c0,0.5-0.4,0.9-0.9,0.9c-1.6,0-3.2,0-4.7,0c-0.5,0-0.9-0.4-0.9-0.9
		C5.8,20.4,6.2,20.1,6.7,20.1z M4.3,25.9c-0.6,0-1-0.4-1-0.9c0-0.5,0.4-0.9,1-0.9c2.3,0,4.7,0,7,0c0.7,0,1.1,0.4,1,1
		c-0.1,0.5-0.4,0.8-0.9,0.8c-1.2,0-2.4,0-3.6,0C6.7,25.9,5.5,25.9,4.3,25.9z M36.5,33.7c-3,0-5.9,0-8.9,0c-5.2,0-10.4,0-15.6,0
		c-0.9,0-1.8-0.1-2.5-0.7c-0.8-0.7-1.3-1.5-1.3-2.6c0-0.4,0-0.8,0-1.2c0-0.5,0.4-0.9,0.8-0.9c0.4,0,0.8,0.4,0.9,0.9
		c0,0.4,0,0.8,0,1.2c0,0.1,0,0.2,0.1,0.3c0.1,0.1,0.2-0.1,0.3-0.1c1.4-1.2,2.8-2.4,4.2-3.5c1.4-1.2,2.8-2.4,4.3-3.7
		c0.2-0.2,0.3-0.3,0-0.5c-2.8-2.3-5.5-4.7-8.2-7.1c-0.1-0.1-0.3-0.4-0.5-0.3c-0.2,0.1-0.1,0.4-0.1,0.6c0,0.3,0,0.6,0,0.9
		c0,0.5-0.4,0.9-0.9,0.9c-0.5,0-0.8-0.4-0.8-0.9c0-0.7-0.1-1.4,0.1-2.1c0.4-1.2,1.4-2.4,3.6-2.4c4.1,0,8.2,0,12.2,0
		c4.1,0,8.1,0,12.2,0c0.6,0,1.1,0,1.7,0.3c1.3,0.6,2.1,1.6,2.1,3.1c0,4.9,0,9.8,0,14.7C40.2,32.3,38.7,33.7,36.5,33.7z"/>
	<path class="st0" d="M38.4,23c0-2.4,0-4.8,0-7.2c0-0.2,0.1-0.4-0.1-0.4c-0.2-0.1-0.3,0.1-0.4,0.2c-1.2,1-2.4,2-3.6,3.1
		c-1.6,1.3-3.1,2.7-4.7,4c-0.4,0.3-0.4,0.3,0,0.7c0,0,0.1,0.1,0.1,0.1c2.7,2.3,5.4,4.6,8.1,6.9c0.1,0.1,0.2,0.3,0.4,0.2
		c0.2-0.1,0.1-0.3,0.1-0.5C38.4,27.8,38.4,25.4,38.4,23z"/>
</g>
</svg>
