<?xml version="1.0" encoding="utf-8"?>
<!-- Generator: Adobe Illustrator 28.0.0, SVG Export Plug-In . SVG Version: 6.00 Build 0)  -->
<svg version="1.1" id="Laag_1" xmlns="http://www.w3.org/2000/svg" xmlns:xlink="http://www.w3.org/1999/xlink" x="0px" y="0px"
	 viewBox="0 0 46 46" style="enable-background:new 0 0 46 46;" xml:space="preserve">
<style type="text/css">
	.st0{fill:#FFFFFF;}
</style>
<g>
	<path class="st0" d="M24.2,12.3c4.1,0,8.1,0,12.2,0c0.6,0,1.1,0,1.7,0.3c1.3,0.6,2.1,1.6,2.1,3.1c0,4.9,0,9.8,0,14.7
		c0,2-1.5,3.4-3.7,3.4c-3,0-5.9,0-8.9,0c-5.2,0-10.4,0-15.6,0c-0.9,0-1.8-0.1-2.5-0.7c-0.8-0.7-1.3-1.5-1.3-2.6c0-0.4,0-0.8,0-1.2
		c0-0.5,0.4-0.9,0.8-0.9c0.4,0,0.8,0.4,0.9,0.9c0,0.4,0,0.8,0,1.2c0,0.1,0,0.2,0.1,0.3c0.1,0.1,0.2-0.1,0.3-0.1
		c1.4-1.2,2.8-2.4,4.2-3.5c1.4-1.2,2.8-2.4,4.3-3.7c0.2-0.2,0.3-0.3,0-0.5c-2.8-2.3-5.5-4.7-8.2-7.1c-0.1-0.1-0.3-0.4-0.5-0.3
		c-0.2,0.1-0.1,0.4-0.1,0.6c0,0.3,0,0.6,0,0.9c0,0.5-0.4,0.9-0.9,0.9c-0.5,0-0.8-0.4-0.8-0.9c0-0.7-0.1-1.4,0.1-2.1
		c0.4-1.2,1.4-2.4,3.6-2.4C16,12.3,20.1,12.3,24.2,12.3z M11.4,14.1c0.2,0.2,0.3,0.3,0.4,0.4c2.1,1.8,4.2,3.6,6.2,5.3
		c1.8,1.5,3.6,3.1,5.4,4.6c0.6,0.5,0.9,0.5,1.4,0.1c4-3.4,8-6.8,12-10.2c0.1-0.1,0.2-0.1,0.1-0.2C28.4,14.1,19.9,14.1,11.4,14.1z
		 M36.9,31.9c0-0.1,0-0.1-0.1-0.2c-2.9-2.4-5.7-4.9-8.6-7.3c-0.2-0.2-0.4-0.2-0.6,0c-0.6,0.5-1.2,1-1.8,1.5c-1.1,1-2.4,0.9-3.5,0
		c-0.6-0.5-1.2-1-1.7-1.5c-0.2-0.2-0.4-0.2-0.6,0c-2.7,2.4-5.5,4.7-8.2,7c-0.2,0.1-0.3,0.3-0.5,0.5C19.9,31.9,28.4,31.9,36.9,31.9z
		 M38.4,23c0-2.4,0-4.8,0-7.2c0-0.2,0.1-0.4-0.1-0.4c-0.2-0.1-0.3,0.1-0.4,0.2c-1.2,1-2.4,2-3.6,3.1c-1.6,1.3-3.1,2.7-4.7,4
		c-0.4,0.3-0.4,0.3,0,0.7c0,0,0.1,0.1,0.1,0.1c2.7,2.3,5.4,4.6,8.1,6.9c0.1,0.1,0.2,0.3,0.4,0.2c0.2-0.1,0.1-0.3,0.1-0.5
		C38.4,27.8,38.4,25.4,38.4,23z"/>
	<path class="st0" d="M7.9,25.9c-1.2,0-2.3,0-3.5,0c-0.6,0-1-0.4-1-0.9c0-0.5,0.4-0.9,1-0.9c2.3,0,4.7,0,7,0c0.7,0,1.1,0.4,1,1
		c-0.1,0.5-0.4,0.8-0.9,0.8C10.3,25.9,9.1,25.9,7.9,25.9z"/>
	<path class="st0" d="M9.1,20.1c0.8,0,1.6,0,2.4,0c0.6,0,1,0.3,1,0.8c0,0.5-0.4,0.9-0.9,0.9c-1.6,0-3.2,0-4.7,0
		c-0.5,0-0.9-0.4-0.9-0.9c0-0.5,0.4-0.8,1-0.8C7.5,20.1,8.3,20.1,9.1,20.1z"/>
</g>
</svg>
