<?xml version="1.0" encoding="utf-8"?>
<!-- Generator: Adobe Illustrator 28.0.0, SVG Export Plug-In . SVG Version: 6.00 Build 0)  -->
<svg version="1.1" id="Laag_1" xmlns="http://www.w3.org/2000/svg" xmlns:xlink="http://www.w3.org/1999/xlink" x="0px" y="0px"
	 viewBox="0 0 45 45" style="enable-background:new 0 0 45 45;" xml:space="preserve">
<style type="text/css">
	.st0{fill:#FFFFFF;}
</style>
<path class="st0" d="M43.5,8.2C43.5,8.2,43.5,8.2,43.5,8.2c0-2.1-1.7-3.9-3.9-3.9c-2.1,0-3.9,1.7-3.9,3.9v22L8.2,2.7l0,0
	C7.4,1.9,6.5,1.5,5.4,1.5c-2.1,0-3.9,1.7-3.9,3.9c0,1.1,0.4,2.1,1.2,2.8l0,0l27.6,27.6h-22c0,0,0,0,0,0c-2.1,0-3.9,1.7-3.9,3.9
	c0,2.1,1.7,3.9,3.9,3.9l35.3,0L43.5,8.2z"/>
</svg>
