<?xml version="1.0" encoding="utf-8"?>
<!-- Generator: Adobe Illustrator 28.0.0, SVG Export Plug-In . SVG Version: 6.00 Build 0)  -->
<svg version="1.1" id="Laag_1" xmlns="http://www.w3.org/2000/svg" xmlns:xlink="http://www.w3.org/1999/xlink" x="0px" y="0px"
	 viewBox="0 0 16 16" style="enable-background:new 0 0 16 16;" xml:space="preserve">
<style type="text/css">
	.st0{fill:#FFFFFF;}
</style>
<path class="st0" d="M15.6,7.2c-0.2-0.2-0.5-0.4-0.8-0.4H9.2V1.2c0-0.3-0.1-0.6-0.4-0.8c-0.5-0.5-1.2-0.5-1.7,0
	C6.9,0.6,6.8,0.9,6.8,1.2v5.6H1.2c-0.3,0-0.6,0.1-0.8,0.4c-0.5,0.5-0.5,1.2,0,1.7c0.2,0.2,0.5,0.4,0.8,0.4h5.6v5.6
	c0,0.3,0.1,0.6,0.4,0.8c0.5,0.5,1.2,0.5,1.7,0c0.2-0.2,0.4-0.5,0.4-0.8V9.2h5.6c0.3,0,0.6-0.1,0.8-0.4C16.1,8.4,16.1,7.6,15.6,7.2z"
	/>
</svg>
