<?xml version="1.0" encoding="utf-8"?>
<!-- Generator: Adobe Illustrator 28.0.0, SVG Export Plug-In . SVG Version: 6.00 Build 0)  -->
<svg version="1.1" id="Laag_1" xmlns="http://www.w3.org/2000/svg" xmlns:xlink="http://www.w3.org/1999/xlink" x="0px" y="0px"
	 viewBox="0 0 90 90" style="enable-background:new 0 0 90 90;" xml:space="preserve">
<style type="text/css">
	.st0{fill:#FAC844;}
</style>
<path class="st0" d="M88.5,1.5c-0.4-0.4-1.1-0.4-1.5,0l-23,23c-5-4.6-11.6-7.5-19-7.5c-15.4,0-27.9,12.5-27.9,27.9
	c0,7.3,2.8,14,7.5,19l-23,23c-0.4,0.4-0.4,1.1,0,1.5c0.2,0.2,0.5,0.3,0.8,0.3s0.5-0.1,0.8-0.3l23-23c5,4.6,11.6,7.4,19,7.4
	c15.4,0,27.9-12.5,27.9-27.9c0-7.3-2.8-14-7.4-19l23-23C88.9,2.6,88.9,1.9,88.5,1.5z M19.2,45c0-14.2,11.6-25.8,25.8-25.8
	c6.7,0,12.9,2.6,17.5,6.8L26,62.5C21.8,57.9,19.2,51.7,19.2,45z M70.8,45c0,14.2-11.6,25.8-25.8,25.8c-6.7,0-12.9-2.6-17.5-6.8
	L64,27.5C68.2,32.1,70.8,38.3,70.8,45z"/>
</svg>
