<?xml version="1.0" encoding="utf-8"?>
<!-- Generator: Adobe Illustrator 28.0.0, SVG Export Plug-In . SVG Version: 6.00 Build 0)  -->
<svg version="1.1" id="Laag_1" xmlns="http://www.w3.org/2000/svg" xmlns:xlink="http://www.w3.org/1999/xlink" x="0px" y="0px"
	 viewBox="0 0 90 90" style="enable-background:new 0 0 90 90;" xml:space="preserve">
<style type="text/css">
	.st0{fill:#FAC844;}
</style>
<g>
	<g>
		<path class="st0" d="M3.9,63.7c-0.2,0-0.3,0-0.5-0.1c-0.5-0.3-0.7-0.9-0.4-1.4L14,41.9c0.3-0.5,0.9-0.7,1.4-0.4
			c0.5,0.3,0.7,0.9,0.4,1.4L4.8,63.1C4.6,63.5,4.2,63.7,3.9,63.7z"/>
	</g>
	<g>
		<path class="st0" d="M45,32.4c-17.2,0-32.8-5.8-41.9-15.4c-0.4-0.4-0.4-1.1,0-1.5c0.4-0.4,1.1-0.4,1.5,0
			c8.7,9.2,23.8,14.8,40.4,14.8c16.6,0,31.7-5.5,40.4-14.8c0.4-0.4,1.1-0.4,1.5,0s0.4,1.1,0,1.5C77.8,26.6,62.2,32.4,45,32.4z"/>
	</g>
	<g>
		<path class="st0" d="M45,74.8c-0.6,0-1.1-0.5-1.1-1.1v-23c0-0.6,0.5-1.1,1.1-1.1s1.1,0.5,1.1,1.1v23C46.1,74.4,45.6,74.8,45,74.8z
			"/>
	</g>
	<g>
		<path class="st0" d="M84.9,63.7c-0.4,0-0.7-0.2-0.9-0.6L72.9,42.9c-0.3-0.5-0.1-1.2,0.4-1.4c0.5-0.3,1.2-0.1,1.4,0.4l11.1,20.2
			c0.3,0.5,0.1,1.2-0.4,1.4C85.3,63.6,85.1,63.7,84.9,63.7z"/>
	</g>
</g>
</svg>
